%TF.GenerationSoftware,KiCad,Pcbnew,8.0.8*%
%TF.CreationDate,2025-01-18T10:05:32+01:00*%
%TF.ProjectId,RP2040-LCD-1_28,52503230-3430-42d4-9c43-442d312c3238,rev?*%
%TF.SameCoordinates,Original*%
%TF.FileFunction,Soldermask,Bot*%
%TF.FilePolarity,Negative*%
%FSLAX46Y46*%
G04 Gerber Fmt 4.6, Leading zero omitted, Abs format (unit mm)*
G04 Created by KiCad (PCBNEW 8.0.8) date 2025-01-18 10:05:32*
%MOMM*%
%LPD*%
G01*
G04 APERTURE LIST*
%ADD10O,1.700000X1.700000*%
%ADD11R,1.700000X1.700000*%
%ADD12R,2.400000X0.740000*%
G04 APERTURE END LIST*
D10*
%TO.C,J4*%
X159512800Y-102532200D03*
X156972800Y-102532200D03*
X159512800Y-99992200D03*
X156972800Y-99992200D03*
X159512800Y-97452200D03*
X156972800Y-97452200D03*
X159512800Y-94912200D03*
X156972800Y-94912200D03*
X159512800Y-92372200D03*
X156972800Y-92372200D03*
X159512800Y-89832200D03*
X156972800Y-89832200D03*
X159512800Y-87292200D03*
X156972800Y-87292200D03*
X159512800Y-84752200D03*
X156972800Y-84752200D03*
X159512800Y-82212200D03*
X156972800Y-82212200D03*
X159512800Y-79672200D03*
D11*
X156972800Y-79672200D03*
%TD*%
%TO.C,J3*%
X148082800Y-79672200D03*
D10*
X150622800Y-79672200D03*
X148082800Y-82212200D03*
X150622800Y-82212200D03*
X148082800Y-84752200D03*
X150622800Y-84752200D03*
X148082800Y-87292200D03*
X150622800Y-87292200D03*
X148082800Y-89832200D03*
X150622800Y-89832200D03*
X148082800Y-92372200D03*
X150622800Y-92372200D03*
X148082800Y-94912200D03*
X150622800Y-94912200D03*
X148082800Y-97452200D03*
X150622800Y-97452200D03*
X148082800Y-99992200D03*
X150622800Y-99992200D03*
X148082800Y-102532200D03*
X150622800Y-102532200D03*
%TD*%
D12*
%TO.C,J2*%
X168950000Y-97500000D03*
X165050000Y-97500000D03*
X168950000Y-96230000D03*
X165050000Y-96230000D03*
X168950000Y-94960000D03*
X165050000Y-94960000D03*
X168950000Y-93690000D03*
X165050000Y-93690000D03*
X168950000Y-92420000D03*
X165050000Y-92420000D03*
X168950000Y-91150000D03*
X165050000Y-91150000D03*
X168950000Y-89880000D03*
X165050000Y-89880000D03*
X168950000Y-88610000D03*
X165050000Y-88610000D03*
X168950000Y-87340000D03*
X165050000Y-87340000D03*
X168950000Y-86070000D03*
X165050000Y-86070000D03*
%TD*%
%TO.C,J1*%
X137900000Y-86000000D03*
X141800000Y-86000000D03*
X137900000Y-87270000D03*
X141800000Y-87270000D03*
X137900000Y-88540000D03*
X141800000Y-88540000D03*
X137900000Y-89810000D03*
X141800000Y-89810000D03*
X137900000Y-91080000D03*
X141800000Y-91080000D03*
X137900000Y-92350000D03*
X141800000Y-92350000D03*
X137900000Y-93620000D03*
X141800000Y-93620000D03*
X137900000Y-94890000D03*
X141800000Y-94890000D03*
X137900000Y-96160000D03*
X141800000Y-96160000D03*
X137900000Y-97430000D03*
X141800000Y-97430000D03*
%TD*%
M02*
