M48
; DRILL file {KiCad 8.0.8} date 2025-01-18T10:06:02+0100
; FORMAT={-:-/ absolute / inch / decimal}
; #@! TF.CreationDate,2025-01-18T10:06:02+01:00
; #@! TF.GenerationSoftware,Kicad,Pcbnew,8.0.8
; #@! TF.FileFunction,Plated,1,2,PTH
FMAT,2
INCH
; #@! TA.AperFunction,Plated,PTH,ViaDrill
T1C0.0118
; #@! TA.AperFunction,Plated,PTH,ComponentDrill
T2C0.0394
%
G90
G05
T1
X5.505Y-3.3867
X5.505Y-3.4367
X5.505Y-3.4867
X5.505Y-3.5367
X5.505Y-3.5867
X5.505Y-3.6367
X5.505Y-3.6867
X5.505Y-3.7367
X5.505Y-3.7867
X5.505Y-3.8367
X5.58Y-3.1867
X5.605Y-4.0617
X6.055Y-3.0117
X6.055Y-4.2367
X6.455Y-3.1867
X6.455Y-4.0617
X6.58Y-3.4367
X6.58Y-3.4867
X6.58Y-3.5367
X6.58Y-3.5867
X6.58Y-3.6367
X6.58Y-3.6867
X6.58Y-3.7367
X6.58Y-3.7867
X6.58Y-3.8367
T2
X5.83Y-3.1367
X5.83Y-3.2367
X5.83Y-3.3367
X5.83Y-3.4367
X5.83Y-3.5367
X5.83Y-3.6367
X5.83Y-3.7367
X5.83Y-3.8367
X5.83Y-3.9367
X5.83Y-4.0367
X5.93Y-3.1367
X5.93Y-3.2367
X5.93Y-3.3367
X5.93Y-3.4367
X5.93Y-3.5367
X5.93Y-3.6367
X5.93Y-3.7367
X5.93Y-3.8367
X5.93Y-3.9367
X5.93Y-4.0367
X6.18Y-3.1367
X6.18Y-3.2367
X6.18Y-3.3367
X6.18Y-3.4367
X6.18Y-3.5367
X6.18Y-3.6367
X6.18Y-3.7367
X6.18Y-3.8367
X6.18Y-3.9367
X6.18Y-4.0367
X6.28Y-3.1367
X6.28Y-3.2367
X6.28Y-3.3367
X6.28Y-3.4367
X6.28Y-3.5367
X6.28Y-3.6367
X6.28Y-3.7367
X6.28Y-3.8367
X6.28Y-3.9367
X6.28Y-4.0367
M30
