%TF.GenerationSoftware,KiCad,Pcbnew,8.0.8*%
%TF.CreationDate,2025-01-18T10:05:32+01:00*%
%TF.ProjectId,RP2040-LCD-1_28,52503230-3430-42d4-9c43-442d312c3238,rev?*%
%TF.SameCoordinates,Original*%
%TF.FileFunction,Copper,L2,Bot*%
%TF.FilePolarity,Positive*%
%FSLAX46Y46*%
G04 Gerber Fmt 4.6, Leading zero omitted, Abs format (unit mm)*
G04 Created by KiCad (PCBNEW 8.0.8) date 2025-01-18 10:05:32*
%MOMM*%
%LPD*%
G01*
G04 APERTURE LIST*
%TA.AperFunction,ComponentPad*%
%ADD10O,1.700000X1.700000*%
%TD*%
%TA.AperFunction,ComponentPad*%
%ADD11R,1.700000X1.700000*%
%TD*%
%TA.AperFunction,SMDPad,CuDef*%
%ADD12R,2.400000X0.740000*%
%TD*%
%TA.AperFunction,ViaPad*%
%ADD13C,0.600000*%
%TD*%
%TA.AperFunction,Conductor*%
%ADD14C,0.200000*%
%TD*%
G04 APERTURE END LIST*
D10*
%TO.P,J4,20,Pin_20*%
%TO.N,GP24{slash}IMU_INT2*%
X159512800Y-102532200D03*
%TO.P,J4,19,Pin_19*%
%TO.N,GP16*%
X156972800Y-102532200D03*
%TO.P,J4,18,Pin_18*%
%TO.N,GP25{slash}LCD_BL*%
X159512800Y-99992200D03*
%TO.P,J4,17,Pin_17*%
%TO.N,GP17*%
X156972800Y-99992200D03*
%TO.P,J4,16,Pin_16*%
%TO.N,GP26*%
X159512800Y-97452200D03*
%TO.P,J4,15,Pin_15*%
%TO.N,GP18*%
X156972800Y-97452200D03*
%TO.P,J4,14,Pin_14*%
%TO.N,GP27*%
X159512800Y-94912200D03*
%TO.P,J4,13,Pin_13*%
%TO.N,GP19*%
X156972800Y-94912200D03*
%TO.P,J4,12,Pin_12*%
%TO.N,GP28*%
X159512800Y-92372200D03*
%TO.P,J4,11,Pin_11*%
%TO.N,GP20*%
X156972800Y-92372200D03*
%TO.P,J4,10,Pin_10*%
%TO.N,GP29{slash}BAT_ADC*%
X159512800Y-89832200D03*
%TO.P,J4,9,Pin_9*%
%TO.N,GP21*%
X156972800Y-89832200D03*
%TO.P,J4,8,Pin_8*%
%TO.N,RUN*%
X159512800Y-87292200D03*
%TO.P,J4,7,Pin_7*%
%TO.N,GP22*%
X156972800Y-87292200D03*
%TO.P,J4,6,Pin_6*%
%TO.N,BOOT*%
X159512800Y-84752200D03*
%TO.P,J4,5,Pin_5*%
%TO.N,GP23{slash}IMU_INT1*%
X156972800Y-84752200D03*
%TO.P,J4,4,Pin_4*%
%TO.N,ADC_AVDD*%
X159512800Y-82212200D03*
%TO.P,J4,3,Pin_3*%
%TO.N,VSYS*%
X156972800Y-82212200D03*
%TO.P,J4,2,Pin_2*%
%TO.N,GND*%
X159512800Y-79672200D03*
D11*
%TO.P,J4,1,Pin_1*%
X156972800Y-79672200D03*
%TD*%
%TO.P,J3,1,Pin_1*%
%TO.N,GP8{slash}LCD_DC*%
X148082800Y-79672200D03*
D10*
%TO.P,J3,2,Pin_2*%
%TO.N,GP0*%
X150622800Y-79672200D03*
%TO.P,J3,3,Pin_3*%
%TO.N,GP9{slash}LCD_CS*%
X148082800Y-82212200D03*
%TO.P,J3,4,Pin_4*%
%TO.N,GP1*%
X150622800Y-82212200D03*
%TO.P,J3,5,Pin_5*%
%TO.N,GP10{slash}LCD_CLK*%
X148082800Y-84752200D03*
%TO.P,J3,6,Pin_6*%
%TO.N,GP2*%
X150622800Y-84752200D03*
%TO.P,J3,7,Pin_7*%
%TO.N,GP11{slash}LCD DIN*%
X148082800Y-87292200D03*
%TO.P,J3,8,Pin_8*%
%TO.N,GP3*%
X150622800Y-87292200D03*
%TO.P,J3,9,Pin_9*%
%TO.N,GP12{slash}LCD_RST*%
X148082800Y-89832200D03*
%TO.P,J3,10,Pin_10*%
%TO.N,GP4*%
X150622800Y-89832200D03*
%TO.P,J3,11,Pin_11*%
%TO.N,GP13*%
X148082800Y-92372200D03*
%TO.P,J3,12,Pin_12*%
%TO.N,GP5*%
X150622800Y-92372200D03*
%TO.P,J3,13,Pin_13*%
%TO.N,GP14*%
X148082800Y-94912200D03*
%TO.P,J3,14,Pin_14*%
%TO.N,GP6{slash}IMU_SDA*%
X150622800Y-94912200D03*
%TO.P,J3,15,Pin_15*%
%TO.N,GP15*%
X148082800Y-97452200D03*
%TO.P,J3,16,Pin_16*%
%TO.N,GP7{slash}IMU_SCL*%
X150622800Y-97452200D03*
%TO.P,J3,17,Pin_17*%
%TO.N,SWCLK*%
X148082800Y-99992200D03*
%TO.P,J3,18,Pin_18*%
%TO.N,VSYS*%
X150622800Y-99992200D03*
%TO.P,J3,19,Pin_19*%
%TO.N,SWDIO*%
X148082800Y-102532200D03*
%TO.P,J3,20,Pin_20*%
%TO.N,GND*%
X150622800Y-102532200D03*
%TD*%
D12*
%TO.P,J2,1,Pin_1*%
%TO.N,GP24{slash}IMU_INT2*%
X168950000Y-97500000D03*
%TO.P,J2,2,Pin_2*%
%TO.N,GP16*%
X165050000Y-97500000D03*
%TO.P,J2,3,Pin_3*%
%TO.N,GP25{slash}LCD_BL*%
X168950000Y-96230000D03*
%TO.P,J2,4,Pin_4*%
%TO.N,GP17*%
X165050000Y-96230000D03*
%TO.P,J2,5,Pin_5*%
%TO.N,GP26*%
X168950000Y-94960000D03*
%TO.P,J2,6,Pin_6*%
%TO.N,GP18*%
X165050000Y-94960000D03*
%TO.P,J2,7,Pin_7*%
%TO.N,GP27*%
X168950000Y-93690000D03*
%TO.P,J2,8,Pin_8*%
%TO.N,GP19*%
X165050000Y-93690000D03*
%TO.P,J2,9,Pin_9*%
%TO.N,GP28*%
X168950000Y-92420000D03*
%TO.P,J2,10,Pin_10*%
%TO.N,GP20*%
X165050000Y-92420000D03*
%TO.P,J2,11,Pin_11*%
%TO.N,GP29{slash}BAT_ADC*%
X168950000Y-91150000D03*
%TO.P,J2,12,Pin_12*%
%TO.N,GP21*%
X165050000Y-91150000D03*
%TO.P,J2,13,Pin_13*%
%TO.N,RUN*%
X168950000Y-89880000D03*
%TO.P,J2,14,Pin_14*%
%TO.N,GP22*%
X165050000Y-89880000D03*
%TO.P,J2,15,Pin_15*%
%TO.N,BOOT*%
X168950000Y-88610000D03*
%TO.P,J2,16,Pin_16*%
%TO.N,GP23{slash}IMU_INT1*%
X165050000Y-88610000D03*
%TO.P,J2,17,Pin_17*%
%TO.N,ADC_AVDD*%
X168950000Y-87340000D03*
%TO.P,J2,18,Pin_18*%
%TO.N,VSYS*%
X165050000Y-87340000D03*
%TO.P,J2,19,Pin_19*%
%TO.N,GND*%
X168950000Y-86070000D03*
%TO.P,J2,20,Pin_20*%
X165050000Y-86070000D03*
%TD*%
%TO.P,J1,1,Pin_1*%
%TO.N,GP8{slash}LCD_DC*%
X137900000Y-86000000D03*
%TO.P,J1,2,Pin_2*%
%TO.N,GP0*%
X141800000Y-86000000D03*
%TO.P,J1,3,Pin_3*%
%TO.N,GP9{slash}LCD_CS*%
X137900000Y-87270000D03*
%TO.P,J1,4,Pin_4*%
%TO.N,GP1*%
X141800000Y-87270000D03*
%TO.P,J1,5,Pin_5*%
%TO.N,GP10{slash}LCD_CLK*%
X137900000Y-88540000D03*
%TO.P,J1,6,Pin_6*%
%TO.N,GP2*%
X141800000Y-88540000D03*
%TO.P,J1,7,Pin_7*%
%TO.N,GP11{slash}LCD DIN*%
X137900000Y-89810000D03*
%TO.P,J1,8,Pin_8*%
%TO.N,GP3*%
X141800000Y-89810000D03*
%TO.P,J1,9,Pin_9*%
%TO.N,GP12{slash}LCD_RST*%
X137900000Y-91080000D03*
%TO.P,J1,10,Pin_10*%
%TO.N,GP4*%
X141800000Y-91080000D03*
%TO.P,J1,11,Pin_11*%
%TO.N,GP13*%
X137900000Y-92350000D03*
%TO.P,J1,12,Pin_12*%
%TO.N,GP5*%
X141800000Y-92350000D03*
%TO.P,J1,13,Pin_13*%
%TO.N,GP14*%
X137900000Y-93620000D03*
%TO.P,J1,14,Pin_14*%
%TO.N,GP6{slash}IMU_SDA*%
X141800000Y-93620000D03*
%TO.P,J1,15,Pin_15*%
%TO.N,GP15*%
X137900000Y-94890000D03*
%TO.P,J1,16,Pin_16*%
%TO.N,GP7{slash}IMU_SCL*%
X141800000Y-94890000D03*
%TO.P,J1,17,Pin_17*%
%TO.N,SWCLK*%
X137900000Y-96160000D03*
%TO.P,J1,18,Pin_18*%
%TO.N,VSYS*%
X141800000Y-96160000D03*
%TO.P,J1,19,Pin_19*%
%TO.N,SWDIO*%
X137900000Y-97430000D03*
%TO.P,J1,20,Pin_20*%
%TO.N,GND*%
X141800000Y-97430000D03*
%TD*%
D13*
%TO.N,GND*%
X153797800Y-107612200D03*
X153797800Y-76497200D03*
X163957800Y-103167200D03*
X142367800Y-103167200D03*
X141732800Y-80942200D03*
X163957800Y-80942200D03*
%TO.N,GP24{slash}IMU_INT2*%
X167132800Y-97452200D03*
%TO.N,GP25{slash}LCD_BL*%
X167132800Y-96182200D03*
%TO.N,GP26*%
X167132800Y-94912200D03*
%TO.N,GP27*%
X167132800Y-93642200D03*
%TO.N,GP28*%
X167132800Y-92372200D03*
%TO.N,GP29{slash}BAT_ADC*%
X167132800Y-91102200D03*
%TO.N,RUN*%
X167132800Y-89832200D03*
%TO.N,BOOT*%
X167132800Y-88562200D03*
%TO.N,ADC_AVDD*%
X167132800Y-87292200D03*
%TO.N,SWDIO*%
X139827800Y-97452200D03*
%TO.N,SWCLK*%
X139827800Y-96182200D03*
%TO.N,GP15*%
X139827800Y-94912200D03*
%TO.N,GP14*%
X139827800Y-93642200D03*
%TO.N,GP13*%
X139827800Y-92372200D03*
%TO.N,GP12{slash}LCD_RST*%
X139827800Y-91102200D03*
%TO.N,GP11{slash}LCD DIN*%
X139827800Y-89832200D03*
%TO.N,GP10{slash}LCD_CLK*%
X139827800Y-88562200D03*
%TO.N,GP9{slash}LCD_CS*%
X139827800Y-87292200D03*
%TO.N,GP8{slash}LCD_DC*%
X139827800Y-86022200D03*
%TD*%
D14*
%TO.N,GP24{slash}IMU_INT2*%
X167180600Y-97500000D02*
X167132800Y-97452200D01*
X168950000Y-97500000D02*
X167180600Y-97500000D01*
%TO.N,GP25{slash}LCD_BL*%
X167180600Y-96230000D02*
X167132800Y-96182200D01*
X168950000Y-96230000D02*
X167180600Y-96230000D01*
%TO.N,GP26*%
X167180600Y-94960000D02*
X167132800Y-94912200D01*
X168950000Y-94960000D02*
X167180600Y-94960000D01*
%TO.N,GP27*%
X167180600Y-93690000D02*
X167132800Y-93642200D01*
X168950000Y-93690000D02*
X167180600Y-93690000D01*
%TO.N,GP28*%
X167180600Y-92420000D02*
X167132800Y-92372200D01*
X168950000Y-92420000D02*
X167180600Y-92420000D01*
%TO.N,GP29{slash}BAT_ADC*%
X167180600Y-91150000D02*
X167132800Y-91102200D01*
X168950000Y-91150000D02*
X167180600Y-91150000D01*
%TO.N,RUN*%
X167180600Y-89880000D02*
X167132800Y-89832200D01*
X168950000Y-89880000D02*
X167180600Y-89880000D01*
%TO.N,BOOT*%
X167180600Y-88610000D02*
X167132800Y-88562200D01*
X168950000Y-88610000D02*
X167180600Y-88610000D01*
%TO.N,ADC_AVDD*%
X167180600Y-87340000D02*
X167132800Y-87292200D01*
X168950000Y-87340000D02*
X167180600Y-87340000D01*
%TO.N,SWDIO*%
X139805600Y-97430000D02*
X139827800Y-97452200D01*
X137900000Y-97430000D02*
X139805600Y-97430000D01*
%TO.N,SWCLK*%
X139805600Y-96160000D02*
X139827800Y-96182200D01*
X137900000Y-96160000D02*
X139805600Y-96160000D01*
%TO.N,GP15*%
X139805600Y-94890000D02*
X139827800Y-94912200D01*
X137900000Y-94890000D02*
X139805600Y-94890000D01*
%TO.N,GP14*%
X139805600Y-93620000D02*
X139827800Y-93642200D01*
X137900000Y-93620000D02*
X139805600Y-93620000D01*
%TO.N,GP13*%
X139805600Y-92350000D02*
X139827800Y-92372200D01*
X137900000Y-92350000D02*
X139805600Y-92350000D01*
%TO.N,GP12{slash}LCD_RST*%
X139805600Y-91080000D02*
X139827800Y-91102200D01*
X137900000Y-91080000D02*
X139805600Y-91080000D01*
%TO.N,GP11{slash}LCD DIN*%
X139805600Y-89810000D02*
X139827800Y-89832200D01*
X137900000Y-89810000D02*
X139805600Y-89810000D01*
%TO.N,GP10{slash}LCD_CLK*%
X139805600Y-88540000D02*
X139827800Y-88562200D01*
X137900000Y-88540000D02*
X139805600Y-88540000D01*
%TO.N,GP9{slash}LCD_CS*%
X139805600Y-87270000D02*
X139827800Y-87292200D01*
X137900000Y-87270000D02*
X139805600Y-87270000D01*
%TO.N,GP8{slash}LCD_DC*%
X139805600Y-86000000D02*
X139827800Y-86022200D01*
X137900000Y-86000000D02*
X139805600Y-86000000D01*
%TO.N,GP16*%
X158242800Y-103802200D02*
X156972800Y-102532200D01*
X159869146Y-103802200D02*
X158242800Y-103802200D01*
X165050000Y-98621346D02*
X159869146Y-103802200D01*
X165050000Y-97500000D02*
X165050000Y-98621346D01*
%TO.N,GP17*%
X158122800Y-101142200D02*
X156972800Y-99992200D01*
X160662800Y-99787200D02*
X160662800Y-100468546D01*
X160662800Y-100468546D02*
X159989146Y-101142200D01*
X164220000Y-96230000D02*
X160662800Y-99787200D01*
X165050000Y-96230000D02*
X164220000Y-96230000D01*
X159989146Y-101142200D02*
X158122800Y-101142200D01*
%TO.N,GP18*%
X160577800Y-98602200D02*
X158122800Y-98602200D01*
X158122800Y-98602200D02*
X156972800Y-97452200D01*
X164220000Y-94960000D02*
X160577800Y-98602200D01*
X165050000Y-94960000D02*
X164220000Y-94960000D01*
%TO.N,GP19*%
X158122800Y-96062200D02*
X156972800Y-94912200D01*
X161847800Y-96062200D02*
X158122800Y-96062200D01*
X164220000Y-93690000D02*
X161847800Y-96062200D01*
X165050000Y-93690000D02*
X164220000Y-93690000D01*
%TO.N,GP20*%
X163117800Y-93522200D02*
X158122800Y-93522200D01*
X164220000Y-92420000D02*
X163117800Y-93522200D01*
X165050000Y-92420000D02*
X164220000Y-92420000D01*
X158122800Y-93522200D02*
X156972800Y-92372200D01*
%TO.N,GP21*%
X158290600Y-91150000D02*
X156972800Y-89832200D01*
X165050000Y-91150000D02*
X158290600Y-91150000D01*
%TO.N,GP22*%
X158122800Y-88442200D02*
X156972800Y-87292200D01*
X164220000Y-89880000D02*
X162782200Y-88442200D01*
X162782200Y-88442200D02*
X158122800Y-88442200D01*
X165050000Y-89880000D02*
X164220000Y-89880000D01*
%TO.N,GP23{slash}IMU_INT1*%
X161632200Y-86022200D02*
X158242800Y-86022200D01*
X164220000Y-88610000D02*
X161632200Y-86022200D01*
X158242800Y-86022200D02*
X156972800Y-84752200D01*
X165050000Y-88610000D02*
X164220000Y-88610000D01*
%TO.N,VSYS*%
X158362800Y-83602200D02*
X156972800Y-82212200D01*
X160412200Y-83602200D02*
X158362800Y-83602200D01*
X165050000Y-87340000D02*
X164150000Y-87340000D01*
X164150000Y-87340000D02*
X160412200Y-83602200D01*
X153797800Y-96817200D02*
X153797800Y-85387200D01*
X150622800Y-99992200D02*
X153797800Y-96817200D01*
X153797800Y-85387200D02*
X156972800Y-82212200D01*
X147606454Y-101142200D02*
X149472800Y-101142200D01*
X142630000Y-96160000D02*
X142630000Y-96165746D01*
X142630000Y-96165746D02*
X147606454Y-101142200D01*
X141800000Y-96160000D02*
X142630000Y-96160000D01*
X149472800Y-101142200D02*
X150622800Y-99992200D01*
%TO.N,GP7{slash}IMU_SCL*%
X149472800Y-98602200D02*
X150622800Y-97452200D01*
X146342200Y-98602200D02*
X149472800Y-98602200D01*
X142630000Y-94890000D02*
X146342200Y-98602200D01*
X141800000Y-94890000D02*
X142630000Y-94890000D01*
%TO.N,GP6{slash}IMU_SDA*%
X149472800Y-96062200D02*
X150622800Y-94912200D01*
X145072200Y-96062200D02*
X149472800Y-96062200D01*
X142630000Y-93620000D02*
X145072200Y-96062200D01*
X141800000Y-93620000D02*
X142630000Y-93620000D01*
%TO.N,GP5*%
X149472800Y-93522200D02*
X150622800Y-92372200D01*
X143802200Y-93522200D02*
X149472800Y-93522200D01*
X141800000Y-92350000D02*
X142630000Y-92350000D01*
X142630000Y-92350000D02*
X143802200Y-93522200D01*
%TO.N,GP4*%
X149375000Y-91080000D02*
X150622800Y-89832200D01*
X141800000Y-91080000D02*
X149375000Y-91080000D01*
%TO.N,GP3*%
X149352800Y-88562200D02*
X150622800Y-87292200D01*
X147726454Y-88562200D02*
X149352800Y-88562200D01*
X146478654Y-89810000D02*
X147726454Y-88562200D01*
X141800000Y-89810000D02*
X146478654Y-89810000D01*
%TO.N,GP2*%
X147726454Y-86022200D02*
X149352800Y-86022200D01*
X145208654Y-88540000D02*
X147726454Y-86022200D01*
X141800000Y-88540000D02*
X145208654Y-88540000D01*
X149352800Y-86022200D02*
X150622800Y-84752200D01*
%TO.N,GP1*%
X147726454Y-83482200D02*
X149352800Y-83482200D01*
X144272800Y-86935854D02*
X147726454Y-83482200D01*
X144272800Y-87292200D02*
X144272800Y-86935854D01*
X144250600Y-87270000D02*
X144272800Y-87292200D01*
X149352800Y-83482200D02*
X150622800Y-82212200D01*
X141800000Y-87270000D02*
X144250600Y-87270000D01*
%TO.N,GP0*%
X144907800Y-80942200D02*
X149352800Y-80942200D01*
X144272800Y-81577200D02*
X144907800Y-80942200D01*
X144272800Y-86022200D02*
X144272800Y-81577200D01*
X149352800Y-80942200D02*
X150622800Y-79672200D01*
X144250600Y-86000000D02*
X144272800Y-86022200D01*
X141800000Y-86000000D02*
X144250600Y-86000000D01*
%TD*%
%TA.AperFunction,Conductor*%
%TO.N,GND*%
G36*
X155539383Y-84597365D02*
G01*
X155595316Y-84639237D01*
X155619733Y-84704701D01*
X155619577Y-84724354D01*
X155617141Y-84752197D01*
X155617141Y-84752200D01*
X155637736Y-84987603D01*
X155637738Y-84987613D01*
X155698894Y-85215855D01*
X155698896Y-85215859D01*
X155698897Y-85215863D01*
X155761358Y-85349811D01*
X155798765Y-85430030D01*
X155798767Y-85430034D01*
X155934301Y-85623595D01*
X155934306Y-85623602D01*
X156101397Y-85790693D01*
X156101403Y-85790698D01*
X156286958Y-85920625D01*
X156330583Y-85975202D01*
X156337777Y-86044700D01*
X156306254Y-86107055D01*
X156286958Y-86123775D01*
X156101397Y-86253705D01*
X155934305Y-86420797D01*
X155798765Y-86614369D01*
X155798764Y-86614371D01*
X155698898Y-86828535D01*
X155698894Y-86828544D01*
X155637738Y-87056786D01*
X155637736Y-87056796D01*
X155617141Y-87292199D01*
X155617141Y-87292200D01*
X155637736Y-87527603D01*
X155637738Y-87527613D01*
X155698894Y-87755855D01*
X155698896Y-87755859D01*
X155698897Y-87755863D01*
X155754534Y-87875176D01*
X155798765Y-87970030D01*
X155798767Y-87970034D01*
X155863525Y-88062517D01*
X155926456Y-88152392D01*
X155934301Y-88163595D01*
X155934306Y-88163602D01*
X156101397Y-88330693D01*
X156101403Y-88330698D01*
X156286958Y-88460625D01*
X156330583Y-88515202D01*
X156337777Y-88584700D01*
X156306254Y-88647055D01*
X156286958Y-88663775D01*
X156101397Y-88793705D01*
X155934305Y-88960797D01*
X155798765Y-89154369D01*
X155798764Y-89154371D01*
X155698898Y-89368535D01*
X155698894Y-89368544D01*
X155637738Y-89596786D01*
X155637736Y-89596796D01*
X155617141Y-89832199D01*
X155617141Y-89832200D01*
X155637736Y-90067603D01*
X155637738Y-90067613D01*
X155698894Y-90295855D01*
X155698896Y-90295859D01*
X155698897Y-90295863D01*
X155788792Y-90488642D01*
X155798765Y-90510030D01*
X155798767Y-90510034D01*
X155934301Y-90703595D01*
X155934306Y-90703602D01*
X156101397Y-90870693D01*
X156101403Y-90870698D01*
X156286958Y-91000625D01*
X156330583Y-91055202D01*
X156337777Y-91124700D01*
X156306254Y-91187055D01*
X156286958Y-91203775D01*
X156101397Y-91333705D01*
X155934305Y-91500797D01*
X155798765Y-91694369D01*
X155798764Y-91694371D01*
X155698898Y-91908535D01*
X155698894Y-91908544D01*
X155637738Y-92136786D01*
X155637736Y-92136796D01*
X155617141Y-92372199D01*
X155617141Y-92372200D01*
X155637736Y-92607603D01*
X155637738Y-92607613D01*
X155698894Y-92835855D01*
X155698896Y-92835859D01*
X155698897Y-92835863D01*
X155788792Y-93028642D01*
X155798765Y-93050030D01*
X155798767Y-93050034D01*
X155934301Y-93243595D01*
X155934306Y-93243602D01*
X156101397Y-93410693D01*
X156101403Y-93410698D01*
X156286958Y-93540625D01*
X156330583Y-93595202D01*
X156337777Y-93664700D01*
X156306254Y-93727055D01*
X156286958Y-93743775D01*
X156101397Y-93873705D01*
X155934305Y-94040797D01*
X155798765Y-94234369D01*
X155798764Y-94234371D01*
X155698898Y-94448535D01*
X155698894Y-94448544D01*
X155637738Y-94676786D01*
X155637736Y-94676796D01*
X155617141Y-94912199D01*
X155617141Y-94912200D01*
X155637736Y-95147603D01*
X155637738Y-95147613D01*
X155698894Y-95375855D01*
X155698896Y-95375859D01*
X155698897Y-95375863D01*
X155737602Y-95458866D01*
X155798765Y-95590030D01*
X155798767Y-95590034D01*
X155934301Y-95783595D01*
X155934306Y-95783602D01*
X156101397Y-95950693D01*
X156101403Y-95950698D01*
X156286958Y-96080625D01*
X156330583Y-96135202D01*
X156337777Y-96204700D01*
X156306254Y-96267055D01*
X156286958Y-96283775D01*
X156101397Y-96413705D01*
X155934305Y-96580797D01*
X155798765Y-96774369D01*
X155798764Y-96774371D01*
X155698898Y-96988535D01*
X155698894Y-96988544D01*
X155637738Y-97216786D01*
X155637736Y-97216796D01*
X155617141Y-97452199D01*
X155617141Y-97452200D01*
X155637736Y-97687603D01*
X155637738Y-97687613D01*
X155698894Y-97915855D01*
X155698896Y-97915859D01*
X155698897Y-97915863D01*
X155754447Y-98034989D01*
X155798765Y-98130030D01*
X155798767Y-98130034D01*
X155886131Y-98254802D01*
X155927439Y-98313796D01*
X155934301Y-98323595D01*
X155934306Y-98323602D01*
X156101397Y-98490693D01*
X156101403Y-98490698D01*
X156286958Y-98620625D01*
X156330583Y-98675202D01*
X156337777Y-98744700D01*
X156306254Y-98807055D01*
X156286958Y-98823775D01*
X156101397Y-98953705D01*
X155934305Y-99120797D01*
X155798765Y-99314369D01*
X155798764Y-99314371D01*
X155698898Y-99528535D01*
X155698894Y-99528544D01*
X155637738Y-99756786D01*
X155637736Y-99756796D01*
X155617141Y-99992199D01*
X155617141Y-99992200D01*
X155637736Y-100227603D01*
X155637738Y-100227613D01*
X155698894Y-100455855D01*
X155698896Y-100455859D01*
X155698897Y-100455863D01*
X155741676Y-100547603D01*
X155798765Y-100670030D01*
X155798767Y-100670034D01*
X155934301Y-100863595D01*
X155934306Y-100863602D01*
X156101397Y-101030693D01*
X156101403Y-101030698D01*
X156286958Y-101160625D01*
X156330583Y-101215202D01*
X156337777Y-101284700D01*
X156306254Y-101347055D01*
X156286958Y-101363775D01*
X156101397Y-101493705D01*
X155934305Y-101660797D01*
X155798765Y-101854369D01*
X155798764Y-101854371D01*
X155698898Y-102068535D01*
X155698894Y-102068544D01*
X155637738Y-102296786D01*
X155637736Y-102296796D01*
X155617141Y-102532199D01*
X155617141Y-102532200D01*
X155637736Y-102767603D01*
X155637738Y-102767613D01*
X155698894Y-102995855D01*
X155698896Y-102995859D01*
X155698897Y-102995863D01*
X155781955Y-103173981D01*
X155798765Y-103210030D01*
X155798767Y-103210034D01*
X155907081Y-103364721D01*
X155934305Y-103403601D01*
X156101399Y-103570695D01*
X156198184Y-103638465D01*
X156294965Y-103706232D01*
X156294967Y-103706233D01*
X156294970Y-103706235D01*
X156509137Y-103806103D01*
X156737392Y-103867263D01*
X156925718Y-103883739D01*
X156972799Y-103887859D01*
X156972800Y-103887859D01*
X156972801Y-103887859D01*
X157012034Y-103884426D01*
X157208208Y-103867263D01*
X157336557Y-103832872D01*
X157406406Y-103834535D01*
X157456331Y-103864966D01*
X157757939Y-104166574D01*
X157757949Y-104166585D01*
X157762279Y-104170915D01*
X157762280Y-104170916D01*
X157874084Y-104282720D01*
X157960895Y-104332839D01*
X157960897Y-104332841D01*
X158011013Y-104361776D01*
X158011015Y-104361777D01*
X158163742Y-104402700D01*
X158163743Y-104402700D01*
X159782477Y-104402700D01*
X159782493Y-104402701D01*
X159790089Y-104402701D01*
X159948200Y-104402701D01*
X159948203Y-104402701D01*
X160100931Y-104361777D01*
X160151050Y-104332839D01*
X160237862Y-104282720D01*
X160349666Y-104170916D01*
X160349666Y-104170914D01*
X160359874Y-104160707D01*
X160359876Y-104160704D01*
X165418713Y-99101867D01*
X165418716Y-99101866D01*
X165530520Y-98990062D01*
X165580639Y-98903250D01*
X165609577Y-98853131D01*
X165650501Y-98700403D01*
X165650501Y-98542289D01*
X165650501Y-98534694D01*
X165650500Y-98534676D01*
X165650500Y-98494499D01*
X165670185Y-98427460D01*
X165722989Y-98381705D01*
X165774500Y-98370499D01*
X166297871Y-98370499D01*
X166297872Y-98370499D01*
X166357483Y-98364091D01*
X166492331Y-98313796D01*
X166607546Y-98227546D01*
X166620512Y-98210225D01*
X166676443Y-98168355D01*
X166746134Y-98163369D01*
X166776597Y-98175807D01*
X166777002Y-98174967D01*
X166783274Y-98177987D01*
X166783278Y-98177989D01*
X166783281Y-98177990D01*
X166953537Y-98237566D01*
X166953543Y-98237567D01*
X166953545Y-98237568D01*
X166953546Y-98237568D01*
X166953550Y-98237569D01*
X167132796Y-98257765D01*
X167132800Y-98257765D01*
X167132804Y-98257765D01*
X167312047Y-98237569D01*
X167312047Y-98237568D01*
X167312055Y-98237568D01*
X167313595Y-98237028D01*
X167314655Y-98236974D01*
X167318837Y-98236020D01*
X167319004Y-98236752D01*
X167383370Y-98233464D01*
X167428863Y-98254802D01*
X167495550Y-98304724D01*
X167507668Y-98313795D01*
X167507671Y-98313797D01*
X167642517Y-98364091D01*
X167642516Y-98364091D01*
X167649444Y-98364835D01*
X167702127Y-98370500D01*
X169779937Y-98370499D01*
X169846976Y-98390184D01*
X169892731Y-98442987D01*
X169902675Y-98512146D01*
X169893925Y-98543312D01*
X169646678Y-99120687D01*
X169644227Y-99126055D01*
X169277670Y-99880645D01*
X169274965Y-99885891D01*
X168872931Y-100622161D01*
X168869980Y-100627272D01*
X168433364Y-101343586D01*
X168430173Y-101348551D01*
X167959970Y-102043275D01*
X167956547Y-102048082D01*
X167453827Y-102719637D01*
X167450179Y-102724277D01*
X166916052Y-103371179D01*
X166912187Y-103375639D01*
X166347896Y-103996379D01*
X166343823Y-104000650D01*
X165750650Y-104593823D01*
X165746379Y-104597896D01*
X165125639Y-105162187D01*
X165121179Y-105166052D01*
X164474277Y-105700179D01*
X164469637Y-105703827D01*
X163798082Y-106206547D01*
X163793275Y-106209970D01*
X163098551Y-106680173D01*
X163093586Y-106683364D01*
X162377272Y-107119980D01*
X162372161Y-107122931D01*
X161635891Y-107524965D01*
X161630645Y-107527670D01*
X160876055Y-107894227D01*
X160870687Y-107896678D01*
X160099546Y-108226900D01*
X160094067Y-108229094D01*
X159308048Y-108522264D01*
X159302470Y-108524194D01*
X158503427Y-108779620D01*
X158497764Y-108781283D01*
X157687448Y-108998406D01*
X157681713Y-108999797D01*
X156862001Y-109178115D01*
X156856206Y-109179232D01*
X156028928Y-109318346D01*
X156023086Y-109319186D01*
X155190127Y-109418778D01*
X155184252Y-109419339D01*
X154347503Y-109479185D01*
X154341608Y-109479466D01*
X153502951Y-109499429D01*
X153497049Y-109499429D01*
X152658391Y-109479466D01*
X152652496Y-109479185D01*
X151815747Y-109419339D01*
X151809872Y-109418778D01*
X150976913Y-109319186D01*
X150971071Y-109318346D01*
X150143793Y-109179232D01*
X150137998Y-109178115D01*
X149318286Y-108999797D01*
X149312551Y-108998406D01*
X148502235Y-108781283D01*
X148496572Y-108779620D01*
X147697529Y-108524194D01*
X147691951Y-108522264D01*
X146905932Y-108229094D01*
X146900453Y-108226900D01*
X146129312Y-107896678D01*
X146123944Y-107894227D01*
X145369354Y-107527670D01*
X145364108Y-107524965D01*
X144627838Y-107122931D01*
X144622727Y-107119980D01*
X143906413Y-106683364D01*
X143901448Y-106680173D01*
X143206724Y-106209970D01*
X143201917Y-106206547D01*
X142530362Y-105703827D01*
X142525722Y-105700179D01*
X141878820Y-105166052D01*
X141874360Y-105162187D01*
X141253620Y-104597896D01*
X141249349Y-104593823D01*
X140656176Y-104000650D01*
X140652103Y-103996379D01*
X140532640Y-103864966D01*
X140087811Y-103375638D01*
X140083947Y-103371179D01*
X139950683Y-103209778D01*
X139549813Y-102724269D01*
X139546172Y-102719637D01*
X139405858Y-102532200D01*
X139043448Y-102048077D01*
X139040029Y-102043275D01*
X139032533Y-102032200D01*
X138569822Y-101348545D01*
X138566635Y-101343586D01*
X138458534Y-101166235D01*
X138130014Y-100627264D01*
X138127068Y-100622161D01*
X138086356Y-100547603D01*
X137725031Y-99885885D01*
X137722329Y-99880645D01*
X137452774Y-99325742D01*
X137355766Y-99126043D01*
X137353321Y-99120687D01*
X137349634Y-99112078D01*
X137122719Y-98582180D01*
X137076099Y-98473312D01*
X137067804Y-98403936D01*
X137098333Y-98341089D01*
X137157993Y-98304724D01*
X137190087Y-98300499D01*
X139147871Y-98300499D01*
X139147872Y-98300499D01*
X139207483Y-98294091D01*
X139208810Y-98293596D01*
X139342329Y-98243797D01*
X139342329Y-98243796D01*
X139342331Y-98243796D01*
X139392643Y-98206131D01*
X139458106Y-98181714D01*
X139507906Y-98188356D01*
X139570409Y-98210227D01*
X139648540Y-98237567D01*
X139648550Y-98237569D01*
X139827796Y-98257765D01*
X139827800Y-98257765D01*
X139827804Y-98257765D01*
X140007049Y-98237569D01*
X140007052Y-98237568D01*
X140007055Y-98237568D01*
X140007056Y-98237567D01*
X140007059Y-98237567D01*
X140085191Y-98210227D01*
X140177322Y-98177989D01*
X140177325Y-98177986D01*
X140178514Y-98177571D01*
X140248293Y-98174008D01*
X140293781Y-98195345D01*
X140357911Y-98243353D01*
X140357913Y-98243354D01*
X140492620Y-98293596D01*
X140492627Y-98293598D01*
X140552155Y-98299999D01*
X140552172Y-98300000D01*
X141550000Y-98300000D01*
X141550000Y-97554000D01*
X141569685Y-97486961D01*
X141622489Y-97441206D01*
X141674000Y-97430000D01*
X141926000Y-97430000D01*
X141993039Y-97449685D01*
X142038794Y-97502489D01*
X142050000Y-97554000D01*
X142050000Y-98300000D01*
X143047828Y-98300000D01*
X143047844Y-98299999D01*
X143107372Y-98293598D01*
X143107379Y-98293596D01*
X143242086Y-98243354D01*
X143242093Y-98243350D01*
X143357187Y-98157190D01*
X143357190Y-98157187D01*
X143448669Y-98034989D01*
X143451562Y-98037155D01*
X143488681Y-97999908D01*
X143556928Y-97984939D01*
X143622434Y-98009243D01*
X143635976Y-98020957D01*
X147072379Y-101457360D01*
X147105864Y-101518683D01*
X147100880Y-101588375D01*
X147072382Y-101632719D01*
X147044306Y-101660796D01*
X146908765Y-101854369D01*
X146908764Y-101854371D01*
X146808898Y-102068535D01*
X146808894Y-102068544D01*
X146747738Y-102296786D01*
X146747736Y-102296796D01*
X146727141Y-102532199D01*
X146727141Y-102532200D01*
X146747736Y-102767603D01*
X146747738Y-102767613D01*
X146808894Y-102995855D01*
X146808896Y-102995859D01*
X146808897Y-102995863D01*
X146891955Y-103173981D01*
X146908765Y-103210030D01*
X146908767Y-103210034D01*
X147017081Y-103364721D01*
X147044305Y-103403601D01*
X147211399Y-103570695D01*
X147308184Y-103638465D01*
X147404965Y-103706232D01*
X147404967Y-103706233D01*
X147404970Y-103706235D01*
X147619137Y-103806103D01*
X147847392Y-103867263D01*
X148035718Y-103883739D01*
X148082799Y-103887859D01*
X148082800Y-103887859D01*
X148082801Y-103887859D01*
X148122034Y-103884426D01*
X148318208Y-103867263D01*
X148546463Y-103806103D01*
X148760630Y-103706235D01*
X148954201Y-103570695D01*
X149121295Y-103403601D01*
X149251530Y-103217605D01*
X149306107Y-103173981D01*
X149375605Y-103166787D01*
X149437960Y-103198310D01*
X149454679Y-103217605D01*
X149584690Y-103403278D01*
X149751717Y-103570305D01*
X149945221Y-103705800D01*
X150159307Y-103805629D01*
X150159316Y-103805633D01*
X150372800Y-103862834D01*
X150372800Y-102965212D01*
X150429807Y-102998125D01*
X150556974Y-103032200D01*
X150688626Y-103032200D01*
X150815793Y-102998125D01*
X150872800Y-102965212D01*
X150872800Y-103862833D01*
X151086283Y-103805633D01*
X151086292Y-103805629D01*
X151300378Y-103705800D01*
X151493882Y-103570305D01*
X151660905Y-103403282D01*
X151796400Y-103209778D01*
X151896229Y-102995692D01*
X151896232Y-102995686D01*
X151953436Y-102782200D01*
X151055812Y-102782200D01*
X151088725Y-102725193D01*
X151122800Y-102598026D01*
X151122800Y-102466374D01*
X151088725Y-102339207D01*
X151055812Y-102282200D01*
X151953436Y-102282200D01*
X151953435Y-102282199D01*
X151896232Y-102068713D01*
X151896229Y-102068707D01*
X151796400Y-101854622D01*
X151796399Y-101854620D01*
X151660913Y-101661126D01*
X151660908Y-101661120D01*
X151493878Y-101494090D01*
X151308205Y-101364079D01*
X151264580Y-101309502D01*
X151257388Y-101240004D01*
X151288910Y-101177649D01*
X151308206Y-101160930D01*
X151308642Y-101160625D01*
X151494201Y-101030695D01*
X151661295Y-100863601D01*
X151796835Y-100670030D01*
X151896703Y-100455863D01*
X151957863Y-100227608D01*
X151978459Y-99992200D01*
X151957863Y-99756792D01*
X151923471Y-99628439D01*
X151925134Y-99558593D01*
X151955563Y-99508670D01*
X154156306Y-97307928D01*
X154156311Y-97307924D01*
X154166514Y-97297720D01*
X154166516Y-97297720D01*
X154278320Y-97185916D01*
X154337459Y-97083484D01*
X154357377Y-97048985D01*
X154398300Y-96896257D01*
X154398300Y-96738143D01*
X154398300Y-85687296D01*
X154417985Y-85620257D01*
X154434614Y-85599620D01*
X155408368Y-84625865D01*
X155469691Y-84592381D01*
X155539383Y-84597365D01*
G37*
%TD.AperFunction*%
%TA.AperFunction,Conductor*%
G36*
X154341643Y-74020534D02*
G01*
X154347467Y-74020812D01*
X155184267Y-74080661D01*
X155190113Y-74081219D01*
X156023108Y-74180816D01*
X156028907Y-74181649D01*
X156856239Y-74320773D01*
X156861968Y-74321877D01*
X157681725Y-74500205D01*
X157687435Y-74501590D01*
X158278246Y-74659896D01*
X158497764Y-74718716D01*
X158503427Y-74720379D01*
X159302492Y-74975812D01*
X159308027Y-74977727D01*
X160094067Y-75270905D01*
X160099543Y-75273098D01*
X160870700Y-75603326D01*
X160876043Y-75605766D01*
X161283608Y-75803749D01*
X161630645Y-75972329D01*
X161635885Y-75975031D01*
X162372170Y-76377073D01*
X162377264Y-76380014D01*
X163093586Y-76816635D01*
X163098551Y-76819826D01*
X163793275Y-77290029D01*
X163798082Y-77293452D01*
X164469637Y-77796172D01*
X164474277Y-77799820D01*
X165121179Y-78333947D01*
X165125638Y-78337811D01*
X165616604Y-78784130D01*
X165746379Y-78902103D01*
X165750650Y-78906176D01*
X166343823Y-79499349D01*
X166347896Y-79503620D01*
X166912187Y-80124360D01*
X166916052Y-80128820D01*
X167044790Y-80284739D01*
X167396486Y-80710693D01*
X167450179Y-80775722D01*
X167453824Y-80780359D01*
X167651016Y-81043775D01*
X167956547Y-81451917D01*
X167959970Y-81456724D01*
X168430173Y-82151448D01*
X168433364Y-82156413D01*
X168869980Y-82872727D01*
X168872931Y-82877838D01*
X169274965Y-83614108D01*
X169277670Y-83619354D01*
X169644227Y-84373944D01*
X169646678Y-84379312D01*
X169920388Y-85018485D01*
X169924115Y-85027187D01*
X169932410Y-85096563D01*
X169901881Y-85159410D01*
X169842221Y-85195775D01*
X169810127Y-85200000D01*
X169200000Y-85200000D01*
X169200000Y-85946000D01*
X169180315Y-86013039D01*
X169127511Y-86058794D01*
X169076000Y-86070000D01*
X168950000Y-86070000D01*
X168950000Y-86196000D01*
X168930315Y-86263039D01*
X168877511Y-86308794D01*
X168826000Y-86320000D01*
X167250000Y-86320000D01*
X167250000Y-86362635D01*
X167230315Y-86429674D01*
X167177511Y-86475429D01*
X167139476Y-86483703D01*
X167139719Y-86485855D01*
X166953550Y-86506830D01*
X166953542Y-86506832D01*
X166914954Y-86520335D01*
X166845175Y-86523896D01*
X166784548Y-86489167D01*
X166752321Y-86427173D01*
X166750000Y-86403293D01*
X166750000Y-86320000D01*
X165174000Y-86320000D01*
X165106961Y-86300315D01*
X165061206Y-86247511D01*
X165050000Y-86196000D01*
X165050000Y-86070000D01*
X164924000Y-86070000D01*
X164856961Y-86050315D01*
X164811206Y-85997511D01*
X164800000Y-85946000D01*
X164800000Y-85820000D01*
X165300000Y-85820000D01*
X166750000Y-85820000D01*
X166750000Y-85652172D01*
X166749999Y-85652155D01*
X167250000Y-85652155D01*
X167250000Y-85820000D01*
X168700000Y-85820000D01*
X168700000Y-85200000D01*
X167702155Y-85200000D01*
X167642627Y-85206401D01*
X167642620Y-85206403D01*
X167507913Y-85256645D01*
X167507906Y-85256649D01*
X167392812Y-85342809D01*
X167392809Y-85342812D01*
X167306649Y-85457906D01*
X167306645Y-85457913D01*
X167256403Y-85592620D01*
X167256401Y-85592627D01*
X167250000Y-85652155D01*
X166749999Y-85652155D01*
X166743598Y-85592627D01*
X166743596Y-85592620D01*
X166693354Y-85457913D01*
X166693350Y-85457906D01*
X166607190Y-85342812D01*
X166607187Y-85342809D01*
X166492093Y-85256649D01*
X166492086Y-85256645D01*
X166357379Y-85206403D01*
X166357372Y-85206401D01*
X166297844Y-85200000D01*
X165300000Y-85200000D01*
X165300000Y-85820000D01*
X164800000Y-85820000D01*
X164800000Y-85200000D01*
X163802155Y-85200000D01*
X163742627Y-85206401D01*
X163742620Y-85206403D01*
X163607913Y-85256645D01*
X163607906Y-85256649D01*
X163492812Y-85342809D01*
X163492809Y-85342812D01*
X163406649Y-85457906D01*
X163406645Y-85457913D01*
X163395430Y-85487984D01*
X163353559Y-85543918D01*
X163288094Y-85568335D01*
X163219821Y-85553483D01*
X163191567Y-85532332D01*
X160899790Y-83240555D01*
X160899788Y-83240552D01*
X160780917Y-83121681D01*
X160780912Y-83121677D01*
X160715604Y-83083972D01*
X160667389Y-83033405D01*
X160654165Y-82964798D01*
X160676031Y-82905459D01*
X160686835Y-82890030D01*
X160786703Y-82675863D01*
X160847863Y-82447608D01*
X160868459Y-82212200D01*
X160847863Y-81976792D01*
X160786703Y-81748537D01*
X160686835Y-81534371D01*
X160681225Y-81526358D01*
X160551294Y-81340797D01*
X160384202Y-81173706D01*
X160384201Y-81173705D01*
X160198205Y-81043469D01*
X160154581Y-80988892D01*
X160147388Y-80919393D01*
X160178910Y-80857039D01*
X160198205Y-80840319D01*
X160383882Y-80710305D01*
X160550905Y-80543282D01*
X160686400Y-80349778D01*
X160786229Y-80135692D01*
X160786232Y-80135686D01*
X160843436Y-79922200D01*
X159945812Y-79922200D01*
X159978725Y-79865193D01*
X160012800Y-79738026D01*
X160012800Y-79606374D01*
X159978725Y-79479207D01*
X159945812Y-79422200D01*
X160843436Y-79422200D01*
X160843435Y-79422199D01*
X160786232Y-79208713D01*
X160786229Y-79208707D01*
X160686400Y-78994622D01*
X160686399Y-78994620D01*
X160550913Y-78801126D01*
X160550908Y-78801120D01*
X160383882Y-78634094D01*
X160190378Y-78498599D01*
X159976292Y-78398770D01*
X159976286Y-78398767D01*
X159762800Y-78341564D01*
X159762800Y-79239188D01*
X159705793Y-79206275D01*
X159578626Y-79172200D01*
X159446974Y-79172200D01*
X159319807Y-79206275D01*
X159262800Y-79239188D01*
X159262800Y-78341564D01*
X159262799Y-78341564D01*
X159049313Y-78398767D01*
X159049307Y-78398770D01*
X158835222Y-78498599D01*
X158835220Y-78498600D01*
X158641726Y-78634086D01*
X158519277Y-78756535D01*
X158457954Y-78790019D01*
X158388262Y-78785035D01*
X158332329Y-78743163D01*
X158315414Y-78712186D01*
X158266154Y-78580113D01*
X158266150Y-78580106D01*
X158179990Y-78465012D01*
X158179987Y-78465009D01*
X158064893Y-78378849D01*
X158064886Y-78378845D01*
X157930179Y-78328603D01*
X157930172Y-78328601D01*
X157870644Y-78322200D01*
X157222800Y-78322200D01*
X157222800Y-79239188D01*
X157165793Y-79206275D01*
X157038626Y-79172200D01*
X156906974Y-79172200D01*
X156779807Y-79206275D01*
X156722800Y-79239188D01*
X156722800Y-78322200D01*
X156074955Y-78322200D01*
X156015427Y-78328601D01*
X156015420Y-78328603D01*
X155880713Y-78378845D01*
X155880706Y-78378849D01*
X155765612Y-78465009D01*
X155765609Y-78465012D01*
X155679449Y-78580106D01*
X155679445Y-78580113D01*
X155629203Y-78714820D01*
X155629201Y-78714827D01*
X155622800Y-78774355D01*
X155622800Y-79422200D01*
X156539788Y-79422200D01*
X156506875Y-79479207D01*
X156472800Y-79606374D01*
X156472800Y-79738026D01*
X156506875Y-79865193D01*
X156539788Y-79922200D01*
X155622800Y-79922200D01*
X155622800Y-80570044D01*
X155629201Y-80629572D01*
X155629203Y-80629579D01*
X155679445Y-80764286D01*
X155679449Y-80764293D01*
X155765609Y-80879387D01*
X155765612Y-80879390D01*
X155880706Y-80965550D01*
X155880713Y-80965554D01*
X156012270Y-81014621D01*
X156068203Y-81056492D01*
X156092621Y-81121956D01*
X156077770Y-81190229D01*
X156056619Y-81218484D01*
X155934303Y-81340800D01*
X155798765Y-81534369D01*
X155798764Y-81534371D01*
X155698898Y-81748535D01*
X155698894Y-81748544D01*
X155637738Y-81976786D01*
X155637736Y-81976796D01*
X155617141Y-82212199D01*
X155617141Y-82212200D01*
X155637736Y-82447603D01*
X155637738Y-82447613D01*
X155672127Y-82575956D01*
X155670464Y-82645806D01*
X155640033Y-82695730D01*
X153429086Y-84906678D01*
X153317281Y-85018482D01*
X153317280Y-85018484D01*
X153272202Y-85096563D01*
X153267161Y-85105294D01*
X153267159Y-85105296D01*
X153238225Y-85155409D01*
X153238224Y-85155410D01*
X153229973Y-85186204D01*
X153197299Y-85308143D01*
X153197299Y-85308145D01*
X153197299Y-85476246D01*
X153197300Y-85476259D01*
X153197300Y-96517102D01*
X153177615Y-96584141D01*
X153160981Y-96604783D01*
X152187232Y-97578532D01*
X152125909Y-97612017D01*
X152056217Y-97607033D01*
X152000284Y-97565161D01*
X151975867Y-97499697D01*
X151976023Y-97480043D01*
X151978459Y-97452200D01*
X151978459Y-97452199D01*
X151974339Y-97405118D01*
X151957863Y-97216792D01*
X151896703Y-96988537D01*
X151796835Y-96774371D01*
X151775126Y-96743366D01*
X151661294Y-96580797D01*
X151494202Y-96413706D01*
X151494196Y-96413701D01*
X151308642Y-96283775D01*
X151265017Y-96229198D01*
X151257823Y-96159700D01*
X151289346Y-96097345D01*
X151308642Y-96080625D01*
X151360829Y-96044083D01*
X151494201Y-95950695D01*
X151661295Y-95783601D01*
X151796835Y-95590030D01*
X151896703Y-95375863D01*
X151957863Y-95147608D01*
X151978459Y-94912200D01*
X151957863Y-94676792D01*
X151896703Y-94448537D01*
X151796835Y-94234371D01*
X151775126Y-94203366D01*
X151661294Y-94040797D01*
X151494202Y-93873706D01*
X151494196Y-93873701D01*
X151308642Y-93743775D01*
X151265017Y-93689198D01*
X151257823Y-93619700D01*
X151289346Y-93557345D01*
X151308642Y-93540625D01*
X151394452Y-93480540D01*
X151494201Y-93410695D01*
X151661295Y-93243601D01*
X151796835Y-93050030D01*
X151896703Y-92835863D01*
X151957863Y-92607608D01*
X151978459Y-92372200D01*
X151976189Y-92346260D01*
X151957863Y-92136796D01*
X151957863Y-92136792D01*
X151896703Y-91908537D01*
X151796835Y-91694371D01*
X151789107Y-91683333D01*
X151661294Y-91500797D01*
X151494202Y-91333706D01*
X151494196Y-91333701D01*
X151308642Y-91203775D01*
X151265017Y-91149198D01*
X151257823Y-91079700D01*
X151289346Y-91017345D01*
X151308642Y-91000625D01*
X151330826Y-90985091D01*
X151494201Y-90870695D01*
X151661295Y-90703601D01*
X151796835Y-90510030D01*
X151896703Y-90295863D01*
X151957863Y-90067608D01*
X151978459Y-89832200D01*
X151957863Y-89596792D01*
X151896703Y-89368537D01*
X151796835Y-89154371D01*
X151787124Y-89140501D01*
X151661294Y-88960797D01*
X151494202Y-88793706D01*
X151494196Y-88793701D01*
X151308642Y-88663775D01*
X151265017Y-88609198D01*
X151257823Y-88539700D01*
X151289346Y-88477345D01*
X151308642Y-88460625D01*
X151330826Y-88445091D01*
X151494201Y-88330695D01*
X151661295Y-88163601D01*
X151796835Y-87970030D01*
X151896703Y-87755863D01*
X151957863Y-87527608D01*
X151978459Y-87292200D01*
X151957863Y-87056792D01*
X151896703Y-86828537D01*
X151796835Y-86614371D01*
X151787123Y-86600500D01*
X151661294Y-86420797D01*
X151494202Y-86253706D01*
X151494196Y-86253701D01*
X151308642Y-86123775D01*
X151265017Y-86069198D01*
X151257823Y-85999700D01*
X151289346Y-85937345D01*
X151308642Y-85920625D01*
X151330826Y-85905091D01*
X151494201Y-85790695D01*
X151661295Y-85623601D01*
X151796835Y-85430030D01*
X151896703Y-85215863D01*
X151957863Y-84987608D01*
X151978459Y-84752200D01*
X151957863Y-84516792D01*
X151896703Y-84288537D01*
X151796835Y-84074371D01*
X151661295Y-83880799D01*
X151661294Y-83880797D01*
X151494202Y-83713706D01*
X151494196Y-83713701D01*
X151308642Y-83583775D01*
X151265017Y-83529198D01*
X151257823Y-83459700D01*
X151289346Y-83397345D01*
X151308642Y-83380625D01*
X151330826Y-83365091D01*
X151494201Y-83250695D01*
X151661295Y-83083601D01*
X151796835Y-82890030D01*
X151896703Y-82675863D01*
X151957863Y-82447608D01*
X151978459Y-82212200D01*
X151957863Y-81976792D01*
X151896703Y-81748537D01*
X151796835Y-81534371D01*
X151791225Y-81526358D01*
X151661294Y-81340797D01*
X151494202Y-81173706D01*
X151494196Y-81173701D01*
X151308642Y-81043775D01*
X151265017Y-80989198D01*
X151257823Y-80919700D01*
X151289346Y-80857345D01*
X151308642Y-80840625D01*
X151417665Y-80764286D01*
X151494201Y-80710695D01*
X151661295Y-80543601D01*
X151796835Y-80350030D01*
X151896703Y-80135863D01*
X151957863Y-79907608D01*
X151978459Y-79672200D01*
X151957863Y-79436792D01*
X151896703Y-79208537D01*
X151796835Y-78994371D01*
X151735081Y-78906176D01*
X151661294Y-78800797D01*
X151494202Y-78633706D01*
X151494195Y-78633701D01*
X151300634Y-78498167D01*
X151300630Y-78498165D01*
X151229527Y-78465009D01*
X151086463Y-78398297D01*
X151086459Y-78398296D01*
X151086455Y-78398294D01*
X150858213Y-78337138D01*
X150858203Y-78337136D01*
X150622801Y-78316541D01*
X150622799Y-78316541D01*
X150387396Y-78337136D01*
X150387386Y-78337138D01*
X150159144Y-78398294D01*
X150159135Y-78398298D01*
X149944971Y-78498164D01*
X149944969Y-78498165D01*
X149751400Y-78633703D01*
X149629473Y-78755630D01*
X149568150Y-78789114D01*
X149498458Y-78784130D01*
X149442525Y-78742258D01*
X149425610Y-78711281D01*
X149376597Y-78579871D01*
X149376593Y-78579864D01*
X149290347Y-78464655D01*
X149290344Y-78464652D01*
X149175135Y-78378406D01*
X149175128Y-78378402D01*
X149040282Y-78328108D01*
X149040283Y-78328108D01*
X148980683Y-78321701D01*
X148980681Y-78321700D01*
X148980673Y-78321700D01*
X148980664Y-78321700D01*
X147184929Y-78321700D01*
X147184923Y-78321701D01*
X147125316Y-78328108D01*
X146990471Y-78378402D01*
X146990464Y-78378406D01*
X146875255Y-78464652D01*
X146875252Y-78464655D01*
X146789006Y-78579864D01*
X146789002Y-78579871D01*
X146738708Y-78714717D01*
X146732301Y-78774316D01*
X146732300Y-78774327D01*
X146732300Y-79503620D01*
X146732301Y-80217700D01*
X146712616Y-80284739D01*
X146659813Y-80330494D01*
X146608301Y-80341700D01*
X144994470Y-80341700D01*
X144994454Y-80341699D01*
X144986858Y-80341699D01*
X144828743Y-80341699D01*
X144752379Y-80362161D01*
X144676014Y-80382623D01*
X144676009Y-80382626D01*
X144539090Y-80461675D01*
X144539082Y-80461681D01*
X143792279Y-81208484D01*
X143786505Y-81218486D01*
X143768225Y-81250149D01*
X143713223Y-81345415D01*
X143672299Y-81498143D01*
X143672299Y-81498145D01*
X143672299Y-81666246D01*
X143672300Y-81666259D01*
X143672300Y-85275500D01*
X143652615Y-85342539D01*
X143599811Y-85388294D01*
X143548300Y-85399500D01*
X143514722Y-85399500D01*
X143447683Y-85379815D01*
X143415455Y-85349811D01*
X143357546Y-85272454D01*
X143309963Y-85236833D01*
X143242335Y-85186206D01*
X143242328Y-85186202D01*
X143107482Y-85135908D01*
X143107483Y-85135908D01*
X143047883Y-85129501D01*
X143047881Y-85129500D01*
X143047873Y-85129500D01*
X143047864Y-85129500D01*
X140552129Y-85129500D01*
X140552123Y-85129501D01*
X140492516Y-85135908D01*
X140357671Y-85186202D01*
X140357669Y-85186204D01*
X140252796Y-85264712D01*
X140187332Y-85289129D01*
X140137531Y-85282487D01*
X140007057Y-85236832D01*
X140007049Y-85236830D01*
X139827804Y-85216635D01*
X139827796Y-85216635D01*
X139648550Y-85236830D01*
X139648537Y-85236833D01*
X139548327Y-85271899D01*
X139478548Y-85275461D01*
X139433061Y-85254124D01*
X139342335Y-85186206D01*
X139342328Y-85186202D01*
X139207482Y-85135908D01*
X139207483Y-85135908D01*
X139147883Y-85129501D01*
X139147881Y-85129500D01*
X139147873Y-85129500D01*
X139147865Y-85129500D01*
X137220062Y-85129500D01*
X137153023Y-85109815D01*
X137107268Y-85057011D01*
X137097324Y-84987853D01*
X137106074Y-84956687D01*
X137353333Y-84379284D01*
X137355758Y-84373972D01*
X137722340Y-83619332D01*
X137725021Y-83614131D01*
X138127083Y-82877811D01*
X138130003Y-82872753D01*
X138566650Y-82156388D01*
X138569809Y-82151473D01*
X139040046Y-81456699D01*
X139043434Y-81451942D01*
X139546194Y-80780332D01*
X139549797Y-80775750D01*
X140083966Y-80128797D01*
X140087792Y-80124382D01*
X140652123Y-79503598D01*
X140656155Y-79499370D01*
X141249370Y-78906155D01*
X141253598Y-78902123D01*
X141874382Y-78337792D01*
X141878797Y-78333966D01*
X142525750Y-77799797D01*
X142530332Y-77796194D01*
X143201942Y-77293434D01*
X143206699Y-77290046D01*
X143901473Y-76819809D01*
X143906388Y-76816650D01*
X144622753Y-76380003D01*
X144627811Y-76377083D01*
X145364131Y-75975021D01*
X145369332Y-75972340D01*
X146123972Y-75605758D01*
X146129283Y-75603333D01*
X146900470Y-75273091D01*
X146905915Y-75270911D01*
X147691985Y-74977723D01*
X147697494Y-74975816D01*
X148496578Y-74720376D01*
X148502229Y-74718717D01*
X149312573Y-74501587D01*
X149318264Y-74500207D01*
X150138039Y-74321875D01*
X150143752Y-74320774D01*
X150971098Y-74181648D01*
X150976885Y-74180817D01*
X151809890Y-74081219D01*
X151815728Y-74080661D01*
X152652534Y-74020812D01*
X152658354Y-74020534D01*
X153497059Y-74000570D01*
X153502941Y-74000570D01*
X154341643Y-74020534D01*
G37*
%TD.AperFunction*%
%TA.AperFunction,Conductor*%
G36*
X159046875Y-79479207D02*
G01*
X159012800Y-79606374D01*
X159012800Y-79738026D01*
X159046875Y-79865193D01*
X159079788Y-79922200D01*
X157405812Y-79922200D01*
X157438725Y-79865193D01*
X157472800Y-79738026D01*
X157472800Y-79606374D01*
X157438725Y-79479207D01*
X157405812Y-79422200D01*
X159079788Y-79422200D01*
X159046875Y-79479207D01*
G37*
%TD.AperFunction*%
%TD*%
M02*
