%TF.GenerationSoftware,KiCad,Pcbnew,8.0.8*%
%TF.CreationDate,2025-01-18T10:05:32+01:00*%
%TF.ProjectId,RP2040-LCD-1_28,52503230-3430-42d4-9c43-442d312c3238,rev?*%
%TF.SameCoordinates,Original*%
%TF.FileFunction,Copper,L1,Top*%
%TF.FilePolarity,Positive*%
%FSLAX46Y46*%
G04 Gerber Fmt 4.6, Leading zero omitted, Abs format (unit mm)*
G04 Created by KiCad (PCBNEW 8.0.8) date 2025-01-18 10:05:32*
%MOMM*%
%LPD*%
G01*
G04 APERTURE LIST*
%TA.AperFunction,ComponentPad*%
%ADD10O,1.700000X1.700000*%
%TD*%
%TA.AperFunction,ComponentPad*%
%ADD11R,1.700000X1.700000*%
%TD*%
%TA.AperFunction,ViaPad*%
%ADD12C,0.600000*%
%TD*%
%TA.AperFunction,Conductor*%
%ADD13C,0.200000*%
%TD*%
G04 APERTURE END LIST*
D10*
%TO.P,J4,20,Pin_20*%
%TO.N,GP24{slash}IMU_INT2*%
X159512800Y-102532200D03*
%TO.P,J4,19,Pin_19*%
%TO.N,GP16*%
X156972800Y-102532200D03*
%TO.P,J4,18,Pin_18*%
%TO.N,GP25{slash}LCD_BL*%
X159512800Y-99992200D03*
%TO.P,J4,17,Pin_17*%
%TO.N,GP17*%
X156972800Y-99992200D03*
%TO.P,J4,16,Pin_16*%
%TO.N,GP26*%
X159512800Y-97452200D03*
%TO.P,J4,15,Pin_15*%
%TO.N,GP18*%
X156972800Y-97452200D03*
%TO.P,J4,14,Pin_14*%
%TO.N,GP27*%
X159512800Y-94912200D03*
%TO.P,J4,13,Pin_13*%
%TO.N,GP19*%
X156972800Y-94912200D03*
%TO.P,J4,12,Pin_12*%
%TO.N,GP28*%
X159512800Y-92372200D03*
%TO.P,J4,11,Pin_11*%
%TO.N,GP20*%
X156972800Y-92372200D03*
%TO.P,J4,10,Pin_10*%
%TO.N,GP29{slash}BAT_ADC*%
X159512800Y-89832200D03*
%TO.P,J4,9,Pin_9*%
%TO.N,GP21*%
X156972800Y-89832200D03*
%TO.P,J4,8,Pin_8*%
%TO.N,RUN*%
X159512800Y-87292200D03*
%TO.P,J4,7,Pin_7*%
%TO.N,GP22*%
X156972800Y-87292200D03*
%TO.P,J4,6,Pin_6*%
%TO.N,BOOT*%
X159512800Y-84752200D03*
%TO.P,J4,5,Pin_5*%
%TO.N,GP23{slash}IMU_INT1*%
X156972800Y-84752200D03*
%TO.P,J4,4,Pin_4*%
%TO.N,ADC_AVDD*%
X159512800Y-82212200D03*
%TO.P,J4,3,Pin_3*%
%TO.N,VSYS*%
X156972800Y-82212200D03*
%TO.P,J4,2,Pin_2*%
%TO.N,GND*%
X159512800Y-79672200D03*
D11*
%TO.P,J4,1,Pin_1*%
X156972800Y-79672200D03*
%TD*%
%TO.P,J3,1,Pin_1*%
%TO.N,GP8{slash}LCD_DC*%
X148082800Y-79672200D03*
D10*
%TO.P,J3,2,Pin_2*%
%TO.N,GP0*%
X150622800Y-79672200D03*
%TO.P,J3,3,Pin_3*%
%TO.N,GP9{slash}LCD_CS*%
X148082800Y-82212200D03*
%TO.P,J3,4,Pin_4*%
%TO.N,GP1*%
X150622800Y-82212200D03*
%TO.P,J3,5,Pin_5*%
%TO.N,GP10{slash}LCD_CLK*%
X148082800Y-84752200D03*
%TO.P,J3,6,Pin_6*%
%TO.N,GP2*%
X150622800Y-84752200D03*
%TO.P,J3,7,Pin_7*%
%TO.N,GP11{slash}LCD DIN*%
X148082800Y-87292200D03*
%TO.P,J3,8,Pin_8*%
%TO.N,GP3*%
X150622800Y-87292200D03*
%TO.P,J3,9,Pin_9*%
%TO.N,GP12{slash}LCD_RST*%
X148082800Y-89832200D03*
%TO.P,J3,10,Pin_10*%
%TO.N,GP4*%
X150622800Y-89832200D03*
%TO.P,J3,11,Pin_11*%
%TO.N,GP13*%
X148082800Y-92372200D03*
%TO.P,J3,12,Pin_12*%
%TO.N,GP5*%
X150622800Y-92372200D03*
%TO.P,J3,13,Pin_13*%
%TO.N,GP14*%
X148082800Y-94912200D03*
%TO.P,J3,14,Pin_14*%
%TO.N,GP6{slash}IMU_SDA*%
X150622800Y-94912200D03*
%TO.P,J3,15,Pin_15*%
%TO.N,GP15*%
X148082800Y-97452200D03*
%TO.P,J3,16,Pin_16*%
%TO.N,GP7{slash}IMU_SCL*%
X150622800Y-97452200D03*
%TO.P,J3,17,Pin_17*%
%TO.N,SWCLK*%
X148082800Y-99992200D03*
%TO.P,J3,18,Pin_18*%
%TO.N,VSYS*%
X150622800Y-99992200D03*
%TO.P,J3,19,Pin_19*%
%TO.N,SWDIO*%
X148082800Y-102532200D03*
%TO.P,J3,20,Pin_20*%
%TO.N,GND*%
X150622800Y-102532200D03*
%TD*%
D12*
%TO.N,GND*%
X153797800Y-107612200D03*
X153797800Y-76497200D03*
X163957800Y-103167200D03*
X142367800Y-103167200D03*
X141732800Y-80942200D03*
X163957800Y-80942200D03*
%TO.N,GP24{slash}IMU_INT2*%
X167132800Y-97452200D03*
%TO.N,GP25{slash}LCD_BL*%
X167132800Y-96182200D03*
%TO.N,GP26*%
X167132800Y-94912200D03*
%TO.N,GP27*%
X167132800Y-93642200D03*
%TO.N,GP28*%
X167132800Y-92372200D03*
%TO.N,GP29{slash}BAT_ADC*%
X167132800Y-91102200D03*
%TO.N,RUN*%
X167132800Y-89832200D03*
%TO.N,BOOT*%
X167132800Y-88562200D03*
%TO.N,ADC_AVDD*%
X167132800Y-87292200D03*
%TO.N,SWDIO*%
X139827800Y-97452200D03*
%TO.N,SWCLK*%
X139827800Y-96182200D03*
%TO.N,GP15*%
X139827800Y-94912200D03*
%TO.N,GP14*%
X139827800Y-93642200D03*
%TO.N,GP13*%
X139827800Y-92372200D03*
%TO.N,GP12{slash}LCD_RST*%
X139827800Y-91102200D03*
%TO.N,GP11{slash}LCD DIN*%
X139827800Y-89832200D03*
%TO.N,GP10{slash}LCD_CLK*%
X139827800Y-88562200D03*
%TO.N,GP9{slash}LCD_CS*%
X139827800Y-87292200D03*
%TO.N,GP8{slash}LCD_DC*%
X139827800Y-86022200D03*
%TD*%
D13*
%TO.N,GP24{slash}IMU_INT2*%
X167132800Y-97452200D02*
X162052800Y-102532200D01*
X162052800Y-102532200D02*
X159512800Y-102532200D01*
%TO.N,GP25{slash}LCD_BL*%
X163322800Y-99992200D02*
X159512800Y-99992200D01*
X167132800Y-96182200D02*
X163322800Y-99992200D01*
%TO.N,GP26*%
X164592800Y-97452200D02*
X159512800Y-97452200D01*
X167132800Y-94912200D02*
X164592800Y-97452200D01*
%TO.N,GP27*%
X167132800Y-93642200D02*
X165862800Y-94912200D01*
X165862800Y-94912200D02*
X159512800Y-94912200D01*
%TO.N,GP28*%
X167132800Y-92372200D02*
X159512800Y-92372200D01*
%TO.N,GP29{slash}BAT_ADC*%
X160782800Y-91102200D02*
X159512800Y-89832200D01*
X167132800Y-91102200D02*
X160782800Y-91102200D01*
%TO.N,RUN*%
X167132800Y-89832200D02*
X162052800Y-89832200D01*
X162052800Y-89832200D02*
X159512800Y-87292200D01*
%TO.N,BOOT*%
X167132800Y-88562200D02*
X163322800Y-88562200D01*
X163322800Y-88562200D02*
X159512800Y-84752200D01*
%TO.N,ADC_AVDD*%
X164592800Y-87292200D02*
X159512800Y-82212200D01*
X167132800Y-87292200D02*
X164592800Y-87292200D01*
%TO.N,SWDIO*%
X144907800Y-102532200D02*
X148082800Y-102532200D01*
X139827800Y-97452200D02*
X144907800Y-102532200D01*
%TO.N,SWCLK*%
X139827800Y-96182200D02*
X143637800Y-99992200D01*
X143637800Y-99992200D02*
X148082800Y-99992200D01*
%TO.N,GP15*%
X142367800Y-97452200D02*
X148082800Y-97452200D01*
X139827800Y-94912200D02*
X142367800Y-97452200D01*
%TO.N,GP14*%
X141097800Y-94912200D02*
X148082800Y-94912200D01*
X139827800Y-93642200D02*
X141097800Y-94912200D01*
%TO.N,GP13*%
X139827800Y-92372200D02*
X148082800Y-92372200D01*
%TO.N,GP12{slash}LCD_RST*%
X140462800Y-90467200D02*
X147447800Y-90467200D01*
X147447800Y-90467200D02*
X148082800Y-89832200D01*
X139827800Y-91102200D02*
X140462800Y-90467200D01*
%TO.N,GP11{slash}LCD DIN*%
X145542800Y-89832200D02*
X148082800Y-87292200D01*
X139827800Y-89832200D02*
X145542800Y-89832200D01*
%TO.N,GP10{slash}LCD_CLK*%
X144272800Y-88562200D02*
X148082800Y-84752200D01*
X139827800Y-88562200D02*
X144272800Y-88562200D01*
%TO.N,GP9{slash}LCD_CS*%
X139827800Y-87292200D02*
X143002800Y-87292200D01*
X143002800Y-87292200D02*
X148082800Y-82212200D01*
%TO.N,GP8{slash}LCD_DC*%
X146177800Y-79672200D02*
X148082800Y-79672200D01*
X139827800Y-86022200D02*
X146177800Y-79672200D01*
%TD*%
%TA.AperFunction,Conductor*%
%TO.N,GND*%
G36*
X159046875Y-79479207D02*
G01*
X159012800Y-79606374D01*
X159012800Y-79738026D01*
X159046875Y-79865193D01*
X159079788Y-79922200D01*
X157405812Y-79922200D01*
X157438725Y-79865193D01*
X157472800Y-79738026D01*
X157472800Y-79606374D01*
X157438725Y-79479207D01*
X157405812Y-79422200D01*
X159079788Y-79422200D01*
X159046875Y-79479207D01*
G37*
%TD.AperFunction*%
%TA.AperFunction,Conductor*%
G36*
X154341643Y-74020534D02*
G01*
X154347467Y-74020812D01*
X155184267Y-74080661D01*
X155190113Y-74081219D01*
X156023108Y-74180816D01*
X156028907Y-74181649D01*
X156856239Y-74320773D01*
X156861968Y-74321877D01*
X157681725Y-74500205D01*
X157687435Y-74501590D01*
X158278246Y-74659896D01*
X158497764Y-74718716D01*
X158503427Y-74720379D01*
X159302492Y-74975812D01*
X159308027Y-74977727D01*
X160094067Y-75270905D01*
X160099543Y-75273098D01*
X160870700Y-75603326D01*
X160876043Y-75605766D01*
X161283608Y-75803749D01*
X161630645Y-75972329D01*
X161635885Y-75975031D01*
X162372170Y-76377073D01*
X162377264Y-76380014D01*
X163093586Y-76816635D01*
X163098551Y-76819826D01*
X163793275Y-77290029D01*
X163798082Y-77293452D01*
X164469637Y-77796172D01*
X164474277Y-77799820D01*
X165121179Y-78333947D01*
X165125638Y-78337811D01*
X165616604Y-78784130D01*
X165746379Y-78902103D01*
X165750650Y-78906176D01*
X166343823Y-79499349D01*
X166347896Y-79503620D01*
X166912187Y-80124360D01*
X166916052Y-80128820D01*
X167396486Y-80710693D01*
X167450179Y-80775722D01*
X167453824Y-80780359D01*
X167651016Y-81043775D01*
X167956547Y-81451917D01*
X167959970Y-81456724D01*
X168430173Y-82151448D01*
X168433364Y-82156413D01*
X168869980Y-82872727D01*
X168872931Y-82877838D01*
X169274965Y-83614108D01*
X169277670Y-83619354D01*
X169644227Y-84373944D01*
X169646678Y-84379312D01*
X169976900Y-85150453D01*
X169979094Y-85155932D01*
X170272264Y-85941951D01*
X170274194Y-85947529D01*
X170529620Y-86746572D01*
X170531283Y-86752235D01*
X170748406Y-87562551D01*
X170749797Y-87568286D01*
X170928115Y-88387998D01*
X170929232Y-88393793D01*
X171068346Y-89221071D01*
X171069186Y-89226913D01*
X171168778Y-90059872D01*
X171169339Y-90065747D01*
X171229185Y-90902496D01*
X171229466Y-90908391D01*
X171249429Y-91747049D01*
X171249429Y-91752951D01*
X171229466Y-92591608D01*
X171229185Y-92597503D01*
X171169339Y-93434252D01*
X171168778Y-93440127D01*
X171069186Y-94273086D01*
X171068346Y-94278928D01*
X170929232Y-95106206D01*
X170928115Y-95112001D01*
X170749797Y-95931713D01*
X170748406Y-95937448D01*
X170531283Y-96747764D01*
X170529620Y-96753427D01*
X170274194Y-97552470D01*
X170272264Y-97558048D01*
X169979094Y-98344067D01*
X169976900Y-98349546D01*
X169646678Y-99120687D01*
X169644227Y-99126055D01*
X169277670Y-99880645D01*
X169274965Y-99885891D01*
X168872931Y-100622161D01*
X168869980Y-100627272D01*
X168433364Y-101343586D01*
X168430173Y-101348551D01*
X167959970Y-102043275D01*
X167956547Y-102048082D01*
X167453827Y-102719637D01*
X167450179Y-102724277D01*
X166916052Y-103371179D01*
X166912187Y-103375639D01*
X166347896Y-103996379D01*
X166343823Y-104000650D01*
X165750650Y-104593823D01*
X165746379Y-104597896D01*
X165125639Y-105162187D01*
X165121179Y-105166052D01*
X164474277Y-105700179D01*
X164469637Y-105703827D01*
X163798082Y-106206547D01*
X163793275Y-106209970D01*
X163098551Y-106680173D01*
X163093586Y-106683364D01*
X162377272Y-107119980D01*
X162372161Y-107122931D01*
X161635891Y-107524965D01*
X161630645Y-107527670D01*
X160876055Y-107894227D01*
X160870687Y-107896678D01*
X160099546Y-108226900D01*
X160094067Y-108229094D01*
X159308048Y-108522264D01*
X159302470Y-108524194D01*
X158503427Y-108779620D01*
X158497764Y-108781283D01*
X157687448Y-108998406D01*
X157681713Y-108999797D01*
X156862001Y-109178115D01*
X156856206Y-109179232D01*
X156028928Y-109318346D01*
X156023086Y-109319186D01*
X155190127Y-109418778D01*
X155184252Y-109419339D01*
X154347503Y-109479185D01*
X154341608Y-109479466D01*
X153502951Y-109499429D01*
X153497049Y-109499429D01*
X152658391Y-109479466D01*
X152652496Y-109479185D01*
X151815747Y-109419339D01*
X151809872Y-109418778D01*
X150976913Y-109319186D01*
X150971071Y-109318346D01*
X150143793Y-109179232D01*
X150137998Y-109178115D01*
X149318286Y-108999797D01*
X149312551Y-108998406D01*
X148502235Y-108781283D01*
X148496572Y-108779620D01*
X147697529Y-108524194D01*
X147691951Y-108522264D01*
X146905932Y-108229094D01*
X146900453Y-108226900D01*
X146129312Y-107896678D01*
X146123944Y-107894227D01*
X145369354Y-107527670D01*
X145364108Y-107524965D01*
X144627838Y-107122931D01*
X144622727Y-107119980D01*
X143906413Y-106683364D01*
X143901448Y-106680173D01*
X143206724Y-106209970D01*
X143201917Y-106206547D01*
X142530362Y-105703827D01*
X142525722Y-105700179D01*
X141878820Y-105166052D01*
X141874360Y-105162187D01*
X141253620Y-104597896D01*
X141249349Y-104593823D01*
X140656176Y-104000650D01*
X140652103Y-103996379D01*
X140478699Y-103805629D01*
X140087811Y-103375638D01*
X140083947Y-103371179D01*
X139946159Y-103204299D01*
X139549813Y-102724269D01*
X139546172Y-102719637D01*
X139405858Y-102532200D01*
X139043448Y-102048077D01*
X139040029Y-102043275D01*
X138951190Y-101912015D01*
X138569822Y-101348545D01*
X138566635Y-101343586D01*
X138545860Y-101309502D01*
X138130014Y-100627264D01*
X138127068Y-100622161D01*
X138124486Y-100617433D01*
X137725031Y-99885885D01*
X137722329Y-99880645D01*
X137547220Y-99520167D01*
X137355766Y-99126043D01*
X137353321Y-99120687D01*
X137281813Y-98953701D01*
X137023098Y-98349543D01*
X137020905Y-98344067D01*
X136991184Y-98264381D01*
X136727727Y-97558027D01*
X136725812Y-97552492D01*
X136499191Y-96843558D01*
X136470379Y-96753427D01*
X136468716Y-96747764D01*
X136365205Y-96361454D01*
X136251590Y-95937435D01*
X136250202Y-95931713D01*
X136071877Y-95111968D01*
X136070773Y-95106239D01*
X135931649Y-94278907D01*
X135930816Y-94273108D01*
X135831219Y-93440113D01*
X135830660Y-93434252D01*
X135770812Y-92597467D01*
X135770534Y-92591643D01*
X135750570Y-91752940D01*
X135750570Y-91747049D01*
X135750681Y-91742384D01*
X135770534Y-90908354D01*
X135770812Y-90902534D01*
X135830661Y-90065728D01*
X135831221Y-90059872D01*
X135837010Y-90011455D01*
X135930817Y-89226885D01*
X135931648Y-89221098D01*
X136070774Y-88393752D01*
X136071875Y-88388039D01*
X136250207Y-87568264D01*
X136251587Y-87562573D01*
X136468717Y-86752229D01*
X136470379Y-86746572D01*
X136470920Y-86744880D01*
X136701936Y-86022196D01*
X139022235Y-86022196D01*
X139022235Y-86022203D01*
X139042430Y-86201449D01*
X139042431Y-86201454D01*
X139102011Y-86371723D01*
X139197984Y-86524462D01*
X139197985Y-86524463D01*
X139243041Y-86569520D01*
X139276525Y-86630843D01*
X139271540Y-86700535D01*
X139243041Y-86744880D01*
X139197984Y-86789937D01*
X139102011Y-86942676D01*
X139042431Y-87112945D01*
X139042430Y-87112950D01*
X139022235Y-87292196D01*
X139022235Y-87292203D01*
X139042430Y-87471449D01*
X139042431Y-87471454D01*
X139102011Y-87641723D01*
X139197984Y-87794462D01*
X139197985Y-87794463D01*
X139243041Y-87839520D01*
X139276525Y-87900843D01*
X139271540Y-87970535D01*
X139243041Y-88014880D01*
X139197984Y-88059937D01*
X139102011Y-88212676D01*
X139042431Y-88382945D01*
X139042430Y-88382950D01*
X139022235Y-88562196D01*
X139022235Y-88562203D01*
X139042430Y-88741449D01*
X139042431Y-88741454D01*
X139102011Y-88911723D01*
X139197984Y-89064462D01*
X139197985Y-89064463D01*
X139243041Y-89109520D01*
X139276525Y-89170843D01*
X139271540Y-89240535D01*
X139243041Y-89284880D01*
X139197984Y-89329937D01*
X139102011Y-89482676D01*
X139042431Y-89652945D01*
X139042430Y-89652950D01*
X139022235Y-89832196D01*
X139022235Y-89832203D01*
X139042430Y-90011449D01*
X139042431Y-90011454D01*
X139102011Y-90181723D01*
X139197984Y-90334462D01*
X139197985Y-90334463D01*
X139243041Y-90379520D01*
X139276525Y-90440843D01*
X139271540Y-90510535D01*
X139243041Y-90554880D01*
X139197984Y-90599937D01*
X139102011Y-90752676D01*
X139042431Y-90922945D01*
X139042430Y-90922950D01*
X139022235Y-91102196D01*
X139022235Y-91102203D01*
X139042430Y-91281449D01*
X139042431Y-91281454D01*
X139102011Y-91451723D01*
X139197984Y-91604462D01*
X139197985Y-91604463D01*
X139243041Y-91649520D01*
X139276525Y-91710843D01*
X139271540Y-91780535D01*
X139243041Y-91824880D01*
X139197984Y-91869937D01*
X139102011Y-92022676D01*
X139042431Y-92192945D01*
X139042430Y-92192950D01*
X139022235Y-92372196D01*
X139022235Y-92372203D01*
X139042430Y-92551449D01*
X139042431Y-92551454D01*
X139102011Y-92721723D01*
X139197984Y-92874462D01*
X139197985Y-92874463D01*
X139243041Y-92919520D01*
X139276525Y-92980843D01*
X139271540Y-93050535D01*
X139243041Y-93094880D01*
X139197984Y-93139937D01*
X139102011Y-93292676D01*
X139042431Y-93462945D01*
X139042430Y-93462950D01*
X139022235Y-93642196D01*
X139022235Y-93642203D01*
X139042430Y-93821449D01*
X139042431Y-93821454D01*
X139102011Y-93991723D01*
X139197984Y-94144462D01*
X139197985Y-94144463D01*
X139243041Y-94189520D01*
X139276525Y-94250843D01*
X139271540Y-94320535D01*
X139243041Y-94364880D01*
X139197984Y-94409937D01*
X139102011Y-94562676D01*
X139042431Y-94732945D01*
X139042430Y-94732950D01*
X139022235Y-94912196D01*
X139022235Y-94912203D01*
X139042430Y-95091449D01*
X139042431Y-95091454D01*
X139102011Y-95261723D01*
X139197984Y-95414462D01*
X139197985Y-95414463D01*
X139243041Y-95459520D01*
X139276525Y-95520843D01*
X139271540Y-95590535D01*
X139243041Y-95634880D01*
X139197984Y-95679937D01*
X139102011Y-95832676D01*
X139042431Y-96002945D01*
X139042430Y-96002950D01*
X139022235Y-96182196D01*
X139022235Y-96182203D01*
X139042430Y-96361449D01*
X139042431Y-96361454D01*
X139102011Y-96531723D01*
X139197984Y-96684462D01*
X139197985Y-96684463D01*
X139243041Y-96729520D01*
X139276525Y-96790843D01*
X139271540Y-96860535D01*
X139243041Y-96904880D01*
X139197984Y-96949937D01*
X139102011Y-97102676D01*
X139042431Y-97272945D01*
X139042430Y-97272950D01*
X139022235Y-97452196D01*
X139022235Y-97452203D01*
X139042430Y-97631449D01*
X139042431Y-97631454D01*
X139102011Y-97801723D01*
X139173731Y-97915864D01*
X139197984Y-97954462D01*
X139325538Y-98082016D01*
X139478278Y-98177989D01*
X139648545Y-98237568D01*
X139735469Y-98247361D01*
X139799880Y-98274426D01*
X139809265Y-98282900D01*
X144422939Y-102896574D01*
X144422949Y-102896585D01*
X144427279Y-102900915D01*
X144427280Y-102900916D01*
X144539084Y-103012720D01*
X144608360Y-103052716D01*
X144676015Y-103091777D01*
X144828743Y-103132701D01*
X144828746Y-103132701D01*
X144994453Y-103132701D01*
X144994469Y-103132700D01*
X146793709Y-103132700D01*
X146860748Y-103152385D01*
X146906092Y-103204297D01*
X146908765Y-103210030D01*
X147044305Y-103403601D01*
X147211399Y-103570695D01*
X147308184Y-103638465D01*
X147404965Y-103706232D01*
X147404967Y-103706233D01*
X147404970Y-103706235D01*
X147619137Y-103806103D01*
X147847392Y-103867263D01*
X148035718Y-103883739D01*
X148082799Y-103887859D01*
X148082800Y-103887859D01*
X148082801Y-103887859D01*
X148122034Y-103884426D01*
X148318208Y-103867263D01*
X148546463Y-103806103D01*
X148760630Y-103706235D01*
X148954201Y-103570695D01*
X149121295Y-103403601D01*
X149251530Y-103217605D01*
X149306107Y-103173981D01*
X149375605Y-103166787D01*
X149437960Y-103198310D01*
X149454679Y-103217605D01*
X149584690Y-103403278D01*
X149751717Y-103570305D01*
X149945221Y-103705800D01*
X150159307Y-103805629D01*
X150159316Y-103805633D01*
X150372800Y-103862834D01*
X150372800Y-102965212D01*
X150429807Y-102998125D01*
X150556974Y-103032200D01*
X150688626Y-103032200D01*
X150815793Y-102998125D01*
X150872800Y-102965212D01*
X150872800Y-103862833D01*
X151086283Y-103805633D01*
X151086292Y-103805629D01*
X151300378Y-103705800D01*
X151493882Y-103570305D01*
X151660905Y-103403282D01*
X151796400Y-103209778D01*
X151896229Y-102995692D01*
X151896232Y-102995686D01*
X151953436Y-102782200D01*
X151055812Y-102782200D01*
X151088725Y-102725193D01*
X151122800Y-102598026D01*
X151122800Y-102466374D01*
X151088725Y-102339207D01*
X151055812Y-102282200D01*
X151953436Y-102282200D01*
X151953435Y-102282199D01*
X151896232Y-102068713D01*
X151896229Y-102068707D01*
X151796400Y-101854622D01*
X151796399Y-101854620D01*
X151660913Y-101661126D01*
X151660908Y-101661120D01*
X151493878Y-101494090D01*
X151308205Y-101364079D01*
X151264580Y-101309502D01*
X151257388Y-101240004D01*
X151288910Y-101177649D01*
X151308206Y-101160930D01*
X151308642Y-101160625D01*
X151494201Y-101030695D01*
X151661295Y-100863601D01*
X151796835Y-100670030D01*
X151896703Y-100455863D01*
X151957863Y-100227608D01*
X151978459Y-99992200D01*
X151957863Y-99756792D01*
X151896703Y-99528537D01*
X151796835Y-99314371D01*
X151796834Y-99314369D01*
X151661294Y-99120797D01*
X151494202Y-98953706D01*
X151494196Y-98953701D01*
X151308642Y-98823775D01*
X151265017Y-98769198D01*
X151257823Y-98699700D01*
X151289346Y-98637345D01*
X151308642Y-98620625D01*
X151330826Y-98605091D01*
X151494201Y-98490695D01*
X151661295Y-98323601D01*
X151796835Y-98130030D01*
X151896703Y-97915863D01*
X151957863Y-97687608D01*
X151978459Y-97452200D01*
X151957863Y-97216792D01*
X151896703Y-96988537D01*
X151796835Y-96774371D01*
X151796834Y-96774369D01*
X151661294Y-96580797D01*
X151494202Y-96413706D01*
X151494196Y-96413701D01*
X151308642Y-96283775D01*
X151265017Y-96229198D01*
X151257823Y-96159700D01*
X151289346Y-96097345D01*
X151308642Y-96080625D01*
X151419580Y-96002945D01*
X151494201Y-95950695D01*
X151661295Y-95783601D01*
X151796835Y-95590030D01*
X151896703Y-95375863D01*
X151957863Y-95147608D01*
X151978459Y-94912200D01*
X151957863Y-94676792D01*
X151896703Y-94448537D01*
X151796835Y-94234371D01*
X151796834Y-94234369D01*
X151661294Y-94040797D01*
X151494202Y-93873706D01*
X151494196Y-93873701D01*
X151308642Y-93743775D01*
X151265017Y-93689198D01*
X151257823Y-93619700D01*
X151289346Y-93557345D01*
X151308642Y-93540625D01*
X151419583Y-93462943D01*
X151494201Y-93410695D01*
X151661295Y-93243601D01*
X151796835Y-93050030D01*
X151896703Y-92835863D01*
X151957863Y-92607608D01*
X151978459Y-92372200D01*
X151957863Y-92136792D01*
X151896703Y-91908537D01*
X151796835Y-91694371D01*
X151796834Y-91694369D01*
X151661294Y-91500797D01*
X151494202Y-91333706D01*
X151494196Y-91333701D01*
X151308642Y-91203775D01*
X151265017Y-91149198D01*
X151257823Y-91079700D01*
X151289346Y-91017345D01*
X151308642Y-91000625D01*
X151419580Y-90922945D01*
X151494201Y-90870695D01*
X151661295Y-90703601D01*
X151796835Y-90510030D01*
X151896703Y-90295863D01*
X151957863Y-90067608D01*
X151978459Y-89832200D01*
X151957863Y-89596792D01*
X151896703Y-89368537D01*
X151796835Y-89154371D01*
X151796482Y-89153866D01*
X151661294Y-88960797D01*
X151494202Y-88793706D01*
X151494196Y-88793701D01*
X151308642Y-88663775D01*
X151265017Y-88609198D01*
X151257823Y-88539700D01*
X151289346Y-88477345D01*
X151308642Y-88460625D01*
X151330826Y-88445091D01*
X151494201Y-88330695D01*
X151661295Y-88163601D01*
X151796835Y-87970030D01*
X151896703Y-87755863D01*
X151957863Y-87527608D01*
X151978459Y-87292200D01*
X151957863Y-87056792D01*
X151896703Y-86828537D01*
X151796835Y-86614371D01*
X151791225Y-86606358D01*
X151661294Y-86420797D01*
X151494202Y-86253706D01*
X151494196Y-86253701D01*
X151308642Y-86123775D01*
X151265017Y-86069198D01*
X151257823Y-85999700D01*
X151289346Y-85937345D01*
X151308642Y-85920625D01*
X151419580Y-85842945D01*
X151494201Y-85790695D01*
X151661295Y-85623601D01*
X151796835Y-85430030D01*
X151896703Y-85215863D01*
X151957863Y-84987608D01*
X151978459Y-84752200D01*
X151957863Y-84516792D01*
X151896703Y-84288537D01*
X151796835Y-84074371D01*
X151791225Y-84066358D01*
X151661294Y-83880797D01*
X151494202Y-83713706D01*
X151494196Y-83713701D01*
X151308642Y-83583775D01*
X151265017Y-83529198D01*
X151257823Y-83459700D01*
X151289346Y-83397345D01*
X151308642Y-83380625D01*
X151330826Y-83365091D01*
X151494201Y-83250695D01*
X151661295Y-83083601D01*
X151796835Y-82890030D01*
X151896703Y-82675863D01*
X151957863Y-82447608D01*
X151978459Y-82212200D01*
X151978459Y-82212199D01*
X155617141Y-82212199D01*
X155617141Y-82212200D01*
X155637736Y-82447603D01*
X155637738Y-82447613D01*
X155698894Y-82675855D01*
X155698896Y-82675859D01*
X155698897Y-82675863D01*
X155708162Y-82695731D01*
X155798765Y-82890030D01*
X155798767Y-82890034D01*
X155907081Y-83044721D01*
X155934301Y-83083596D01*
X155934306Y-83083602D01*
X156101397Y-83250693D01*
X156101403Y-83250698D01*
X156286958Y-83380625D01*
X156330583Y-83435202D01*
X156337777Y-83504700D01*
X156306254Y-83567055D01*
X156286958Y-83583775D01*
X156101397Y-83713705D01*
X155934305Y-83880797D01*
X155798765Y-84074369D01*
X155798764Y-84074371D01*
X155698898Y-84288535D01*
X155698894Y-84288544D01*
X155637738Y-84516786D01*
X155637736Y-84516796D01*
X155617141Y-84752199D01*
X155617141Y-84752200D01*
X155637736Y-84987603D01*
X155637738Y-84987613D01*
X155698894Y-85215855D01*
X155698896Y-85215859D01*
X155698897Y-85215863D01*
X155778804Y-85387223D01*
X155798765Y-85430030D01*
X155798767Y-85430034D01*
X155861719Y-85519938D01*
X155934301Y-85623596D01*
X155934306Y-85623602D01*
X156101397Y-85790693D01*
X156101403Y-85790698D01*
X156286958Y-85920625D01*
X156330583Y-85975202D01*
X156337777Y-86044700D01*
X156306254Y-86107055D01*
X156286958Y-86123775D01*
X156101397Y-86253705D01*
X155934305Y-86420797D01*
X155798765Y-86614369D01*
X155798764Y-86614371D01*
X155698898Y-86828535D01*
X155698894Y-86828544D01*
X155637738Y-87056786D01*
X155637736Y-87056796D01*
X155617141Y-87292199D01*
X155617141Y-87292200D01*
X155637736Y-87527603D01*
X155637738Y-87527613D01*
X155698894Y-87755855D01*
X155698896Y-87755859D01*
X155698897Y-87755863D01*
X155785701Y-87942015D01*
X155798765Y-87970030D01*
X155798767Y-87970034D01*
X155861719Y-88059938D01*
X155934301Y-88163596D01*
X155934306Y-88163602D01*
X156101397Y-88330693D01*
X156101403Y-88330698D01*
X156286958Y-88460625D01*
X156330583Y-88515202D01*
X156337777Y-88584700D01*
X156306254Y-88647055D01*
X156286958Y-88663775D01*
X156101397Y-88793705D01*
X155934305Y-88960797D01*
X155798765Y-89154369D01*
X155798764Y-89154371D01*
X155698898Y-89368535D01*
X155698894Y-89368544D01*
X155637738Y-89596786D01*
X155637736Y-89596796D01*
X155617141Y-89832199D01*
X155617141Y-89832200D01*
X155637736Y-90067603D01*
X155637738Y-90067613D01*
X155698894Y-90295855D01*
X155698896Y-90295859D01*
X155698897Y-90295863D01*
X155785701Y-90482015D01*
X155798765Y-90510030D01*
X155798767Y-90510034D01*
X155861719Y-90599938D01*
X155934301Y-90703596D01*
X155934306Y-90703602D01*
X156101397Y-90870693D01*
X156101403Y-90870698D01*
X156286958Y-91000625D01*
X156330583Y-91055202D01*
X156337777Y-91124700D01*
X156306254Y-91187055D01*
X156286958Y-91203775D01*
X156101397Y-91333705D01*
X155934305Y-91500797D01*
X155798765Y-91694369D01*
X155798764Y-91694371D01*
X155698898Y-91908535D01*
X155698894Y-91908544D01*
X155637738Y-92136786D01*
X155637736Y-92136796D01*
X155617141Y-92372199D01*
X155617141Y-92372200D01*
X155637736Y-92607603D01*
X155637738Y-92607613D01*
X155698894Y-92835855D01*
X155698896Y-92835859D01*
X155698897Y-92835863D01*
X155767688Y-92983386D01*
X155798765Y-93050030D01*
X155798767Y-93050034D01*
X155861719Y-93139938D01*
X155934301Y-93243596D01*
X155934306Y-93243602D01*
X156101397Y-93410693D01*
X156101403Y-93410698D01*
X156286958Y-93540625D01*
X156330583Y-93595202D01*
X156337777Y-93664700D01*
X156306254Y-93727055D01*
X156286958Y-93743775D01*
X156101397Y-93873705D01*
X155934305Y-94040797D01*
X155798765Y-94234369D01*
X155798764Y-94234371D01*
X155698898Y-94448535D01*
X155698894Y-94448544D01*
X155637738Y-94676786D01*
X155637736Y-94676796D01*
X155617141Y-94912199D01*
X155617141Y-94912200D01*
X155637736Y-95147603D01*
X155637738Y-95147613D01*
X155698894Y-95375855D01*
X155698896Y-95375859D01*
X155698897Y-95375863D01*
X155771639Y-95531858D01*
X155798765Y-95590030D01*
X155798767Y-95590034D01*
X155861719Y-95679938D01*
X155934301Y-95783596D01*
X155934306Y-95783602D01*
X156101397Y-95950693D01*
X156101403Y-95950698D01*
X156286958Y-96080625D01*
X156330583Y-96135202D01*
X156337777Y-96204700D01*
X156306254Y-96267055D01*
X156286958Y-96283775D01*
X156101397Y-96413705D01*
X155934305Y-96580797D01*
X155798765Y-96774369D01*
X155798764Y-96774371D01*
X155698898Y-96988535D01*
X155698894Y-96988544D01*
X155637738Y-97216786D01*
X155637736Y-97216796D01*
X155617141Y-97452199D01*
X155617141Y-97452200D01*
X155637736Y-97687603D01*
X155637738Y-97687613D01*
X155698894Y-97915855D01*
X155698896Y-97915859D01*
X155698897Y-97915863D01*
X155762853Y-98053016D01*
X155798765Y-98130030D01*
X155798767Y-98130034D01*
X155874063Y-98237567D01*
X155934301Y-98323596D01*
X155934306Y-98323602D01*
X156101397Y-98490693D01*
X156101403Y-98490698D01*
X156286958Y-98620625D01*
X156330583Y-98675202D01*
X156337777Y-98744700D01*
X156306254Y-98807055D01*
X156286958Y-98823775D01*
X156101397Y-98953705D01*
X155934305Y-99120797D01*
X155798765Y-99314369D01*
X155798764Y-99314371D01*
X155698898Y-99528535D01*
X155698894Y-99528544D01*
X155637738Y-99756786D01*
X155637736Y-99756796D01*
X155617141Y-99992199D01*
X155617141Y-99992200D01*
X155637736Y-100227603D01*
X155637738Y-100227613D01*
X155698894Y-100455855D01*
X155698896Y-100455859D01*
X155698897Y-100455863D01*
X155762853Y-100593016D01*
X155798765Y-100670030D01*
X155798767Y-100670034D01*
X155888303Y-100797903D01*
X155934301Y-100863596D01*
X155934306Y-100863602D01*
X156101397Y-101030693D01*
X156101403Y-101030698D01*
X156286958Y-101160625D01*
X156330583Y-101215202D01*
X156337777Y-101284700D01*
X156306254Y-101347055D01*
X156286958Y-101363775D01*
X156101397Y-101493705D01*
X155934305Y-101660797D01*
X155798765Y-101854369D01*
X155798764Y-101854371D01*
X155698898Y-102068535D01*
X155698894Y-102068544D01*
X155637738Y-102296786D01*
X155637736Y-102296796D01*
X155617141Y-102532199D01*
X155617141Y-102532200D01*
X155637736Y-102767603D01*
X155637738Y-102767613D01*
X155698894Y-102995855D01*
X155698896Y-102995859D01*
X155698897Y-102995863D01*
X155778804Y-103167223D01*
X155798765Y-103210030D01*
X155798767Y-103210034D01*
X155907081Y-103364721D01*
X155934305Y-103403601D01*
X156101399Y-103570695D01*
X156198184Y-103638465D01*
X156294965Y-103706232D01*
X156294967Y-103706233D01*
X156294970Y-103706235D01*
X156509137Y-103806103D01*
X156737392Y-103867263D01*
X156925718Y-103883739D01*
X156972799Y-103887859D01*
X156972800Y-103887859D01*
X156972801Y-103887859D01*
X157012034Y-103884426D01*
X157208208Y-103867263D01*
X157436463Y-103806103D01*
X157650630Y-103706235D01*
X157844201Y-103570695D01*
X158011295Y-103403601D01*
X158141225Y-103218042D01*
X158195802Y-103174417D01*
X158265300Y-103167223D01*
X158327655Y-103198746D01*
X158344375Y-103218042D01*
X158474300Y-103403595D01*
X158474305Y-103403601D01*
X158641399Y-103570695D01*
X158738184Y-103638465D01*
X158834965Y-103706232D01*
X158834967Y-103706233D01*
X158834970Y-103706235D01*
X159049137Y-103806103D01*
X159277392Y-103867263D01*
X159465718Y-103883739D01*
X159512799Y-103887859D01*
X159512800Y-103887859D01*
X159512801Y-103887859D01*
X159552034Y-103884426D01*
X159748208Y-103867263D01*
X159976463Y-103806103D01*
X160190630Y-103706235D01*
X160384201Y-103570695D01*
X160551295Y-103403601D01*
X160686835Y-103210030D01*
X160689507Y-103204297D01*
X160735678Y-103151858D01*
X160801891Y-103132700D01*
X161966131Y-103132700D01*
X161966147Y-103132701D01*
X161973743Y-103132701D01*
X162131854Y-103132701D01*
X162131857Y-103132701D01*
X162284585Y-103091777D01*
X162352240Y-103052716D01*
X162421516Y-103012720D01*
X162533320Y-102900916D01*
X162533320Y-102900914D01*
X162543524Y-102890711D01*
X162543528Y-102890706D01*
X167151335Y-98282898D01*
X167212656Y-98249415D01*
X167225111Y-98247363D01*
X167312055Y-98237568D01*
X167482322Y-98177989D01*
X167635062Y-98082016D01*
X167762616Y-97954462D01*
X167858589Y-97801722D01*
X167918168Y-97631455D01*
X167926439Y-97558048D01*
X167938365Y-97452203D01*
X167938365Y-97452196D01*
X167918169Y-97272950D01*
X167918168Y-97272945D01*
X167858588Y-97102676D01*
X167762615Y-96949937D01*
X167717559Y-96904881D01*
X167684074Y-96843558D01*
X167689058Y-96773866D01*
X167717559Y-96729519D01*
X167762616Y-96684462D01*
X167858589Y-96531722D01*
X167918168Y-96361455D01*
X167918169Y-96361449D01*
X167938365Y-96182203D01*
X167938365Y-96182196D01*
X167918169Y-96002950D01*
X167918168Y-96002945D01*
X167899884Y-95950693D01*
X167858589Y-95832678D01*
X167827752Y-95783602D01*
X167762615Y-95679937D01*
X167717559Y-95634881D01*
X167684074Y-95573558D01*
X167689058Y-95503866D01*
X167717559Y-95459519D01*
X167762616Y-95414462D01*
X167858589Y-95261722D01*
X167918168Y-95091455D01*
X167938365Y-94912200D01*
X167918168Y-94732945D01*
X167858589Y-94562678D01*
X167762616Y-94409938D01*
X167717558Y-94364880D01*
X167684074Y-94303558D01*
X167689058Y-94233866D01*
X167717559Y-94189519D01*
X167762616Y-94144462D01*
X167858589Y-93991722D01*
X167918168Y-93821455D01*
X167918169Y-93821449D01*
X167938365Y-93642203D01*
X167938365Y-93642196D01*
X167918169Y-93462950D01*
X167918168Y-93462945D01*
X167858588Y-93292676D01*
X167819382Y-93230280D01*
X167762616Y-93139938D01*
X167717558Y-93094880D01*
X167684074Y-93033558D01*
X167689058Y-92963866D01*
X167717559Y-92919519D01*
X167762616Y-92874462D01*
X167858589Y-92721722D01*
X167918168Y-92551455D01*
X167938365Y-92372200D01*
X167918168Y-92192945D01*
X167858589Y-92022678D01*
X167762616Y-91869938D01*
X167717558Y-91824880D01*
X167684074Y-91763558D01*
X167689058Y-91693866D01*
X167717559Y-91649519D01*
X167737025Y-91630053D01*
X167762616Y-91604462D01*
X167858589Y-91451722D01*
X167918168Y-91281455D01*
X167926293Y-91209347D01*
X167938365Y-91102203D01*
X167938365Y-91102196D01*
X167918169Y-90922950D01*
X167918168Y-90922945D01*
X167858588Y-90752676D01*
X167762615Y-90599937D01*
X167717559Y-90554881D01*
X167684074Y-90493558D01*
X167689058Y-90423866D01*
X167717559Y-90379519D01*
X167762616Y-90334462D01*
X167858589Y-90181722D01*
X167918168Y-90011455D01*
X167938365Y-89832200D01*
X167920060Y-89669738D01*
X167918169Y-89652950D01*
X167918168Y-89652945D01*
X167858588Y-89482676D01*
X167762615Y-89329937D01*
X167717559Y-89284881D01*
X167684074Y-89223558D01*
X167689058Y-89153866D01*
X167717559Y-89109519D01*
X167737025Y-89090053D01*
X167762616Y-89064462D01*
X167858589Y-88911722D01*
X167918168Y-88741455D01*
X167918169Y-88741449D01*
X167938365Y-88562203D01*
X167938365Y-88562196D01*
X167918169Y-88382950D01*
X167918168Y-88382945D01*
X167858588Y-88212676D01*
X167762615Y-88059937D01*
X167717559Y-88014881D01*
X167684074Y-87953558D01*
X167689058Y-87883866D01*
X167717559Y-87839519D01*
X167737025Y-87820053D01*
X167762616Y-87794462D01*
X167858589Y-87641722D01*
X167918168Y-87471455D01*
X167938365Y-87292200D01*
X167935228Y-87264359D01*
X167918169Y-87112950D01*
X167918168Y-87112945D01*
X167858588Y-86942676D01*
X167762615Y-86789937D01*
X167635062Y-86662384D01*
X167482323Y-86566411D01*
X167312054Y-86506831D01*
X167312049Y-86506830D01*
X167132804Y-86486635D01*
X167132796Y-86486635D01*
X166953550Y-86506830D01*
X166953545Y-86506831D01*
X166783276Y-86566411D01*
X166630536Y-86662385D01*
X166627703Y-86664645D01*
X166625524Y-86665534D01*
X166624642Y-86666089D01*
X166624544Y-86665934D01*
X166563017Y-86691055D01*
X166550388Y-86691700D01*
X164892897Y-86691700D01*
X164825858Y-86672015D01*
X164805216Y-86655381D01*
X160845566Y-82695731D01*
X160812081Y-82634408D01*
X160813472Y-82575957D01*
X160814663Y-82571509D01*
X160847863Y-82447608D01*
X160868459Y-82212200D01*
X160847863Y-81976792D01*
X160786703Y-81748537D01*
X160686835Y-81534371D01*
X160681225Y-81526358D01*
X160551294Y-81340797D01*
X160384202Y-81173706D01*
X160384201Y-81173705D01*
X160198205Y-81043469D01*
X160154581Y-80988892D01*
X160147388Y-80919393D01*
X160178910Y-80857039D01*
X160198205Y-80840319D01*
X160383882Y-80710305D01*
X160550905Y-80543282D01*
X160686400Y-80349778D01*
X160786229Y-80135692D01*
X160786232Y-80135686D01*
X160843436Y-79922200D01*
X159945812Y-79922200D01*
X159978725Y-79865193D01*
X160012800Y-79738026D01*
X160012800Y-79606374D01*
X159978725Y-79479207D01*
X159945812Y-79422200D01*
X160843436Y-79422200D01*
X160843435Y-79422199D01*
X160786232Y-79208713D01*
X160786229Y-79208707D01*
X160686400Y-78994622D01*
X160686399Y-78994620D01*
X160550913Y-78801126D01*
X160550908Y-78801120D01*
X160383882Y-78634094D01*
X160190378Y-78498599D01*
X159976292Y-78398770D01*
X159976286Y-78398767D01*
X159762800Y-78341564D01*
X159762800Y-79239188D01*
X159705793Y-79206275D01*
X159578626Y-79172200D01*
X159446974Y-79172200D01*
X159319807Y-79206275D01*
X159262800Y-79239188D01*
X159262800Y-78341564D01*
X159262799Y-78341564D01*
X159049313Y-78398767D01*
X159049307Y-78398770D01*
X158835222Y-78498599D01*
X158835220Y-78498600D01*
X158641726Y-78634086D01*
X158519277Y-78756535D01*
X158457954Y-78790019D01*
X158388262Y-78785035D01*
X158332329Y-78743163D01*
X158315414Y-78712186D01*
X158266154Y-78580113D01*
X158266150Y-78580106D01*
X158179990Y-78465012D01*
X158179987Y-78465009D01*
X158064893Y-78378849D01*
X158064886Y-78378845D01*
X157930179Y-78328603D01*
X157930172Y-78328601D01*
X157870644Y-78322200D01*
X157222800Y-78322200D01*
X157222800Y-79239188D01*
X157165793Y-79206275D01*
X157038626Y-79172200D01*
X156906974Y-79172200D01*
X156779807Y-79206275D01*
X156722800Y-79239188D01*
X156722800Y-78322200D01*
X156074955Y-78322200D01*
X156015427Y-78328601D01*
X156015420Y-78328603D01*
X155880713Y-78378845D01*
X155880706Y-78378849D01*
X155765612Y-78465009D01*
X155765609Y-78465012D01*
X155679449Y-78580106D01*
X155679445Y-78580113D01*
X155629203Y-78714820D01*
X155629201Y-78714827D01*
X155622800Y-78774355D01*
X155622800Y-79422200D01*
X156539788Y-79422200D01*
X156506875Y-79479207D01*
X156472800Y-79606374D01*
X156472800Y-79738026D01*
X156506875Y-79865193D01*
X156539788Y-79922200D01*
X155622800Y-79922200D01*
X155622800Y-80570044D01*
X155629201Y-80629572D01*
X155629203Y-80629579D01*
X155679445Y-80764286D01*
X155679449Y-80764293D01*
X155765609Y-80879387D01*
X155765612Y-80879390D01*
X155880706Y-80965550D01*
X155880713Y-80965554D01*
X156012270Y-81014621D01*
X156068203Y-81056492D01*
X156092621Y-81121956D01*
X156077770Y-81190229D01*
X156056619Y-81218484D01*
X155934303Y-81340800D01*
X155798765Y-81534369D01*
X155798764Y-81534371D01*
X155698898Y-81748535D01*
X155698894Y-81748544D01*
X155637738Y-81976786D01*
X155637736Y-81976796D01*
X155617141Y-82212199D01*
X151978459Y-82212199D01*
X151957863Y-81976792D01*
X151896703Y-81748537D01*
X151796835Y-81534371D01*
X151791225Y-81526358D01*
X151661294Y-81340797D01*
X151494202Y-81173706D01*
X151494196Y-81173701D01*
X151308642Y-81043775D01*
X151265017Y-80989198D01*
X151257823Y-80919700D01*
X151289346Y-80857345D01*
X151308642Y-80840625D01*
X151401333Y-80775722D01*
X151494201Y-80710695D01*
X151661295Y-80543601D01*
X151796835Y-80350030D01*
X151896703Y-80135863D01*
X151957863Y-79907608D01*
X151978459Y-79672200D01*
X151957863Y-79436792D01*
X151896703Y-79208537D01*
X151796835Y-78994371D01*
X151735081Y-78906176D01*
X151661294Y-78800797D01*
X151494202Y-78633706D01*
X151494195Y-78633701D01*
X151300634Y-78498167D01*
X151300630Y-78498165D01*
X151229527Y-78465009D01*
X151086463Y-78398297D01*
X151086459Y-78398296D01*
X151086455Y-78398294D01*
X150858213Y-78337138D01*
X150858203Y-78337136D01*
X150622801Y-78316541D01*
X150622799Y-78316541D01*
X150387396Y-78337136D01*
X150387386Y-78337138D01*
X150159144Y-78398294D01*
X150159135Y-78398298D01*
X149944971Y-78498164D01*
X149944969Y-78498165D01*
X149751400Y-78633703D01*
X149629473Y-78755630D01*
X149568150Y-78789114D01*
X149498458Y-78784130D01*
X149442525Y-78742258D01*
X149425610Y-78711281D01*
X149376597Y-78579871D01*
X149376593Y-78579864D01*
X149290347Y-78464655D01*
X149290344Y-78464652D01*
X149175135Y-78378406D01*
X149175128Y-78378402D01*
X149040282Y-78328108D01*
X149040283Y-78328108D01*
X148980683Y-78321701D01*
X148980681Y-78321700D01*
X148980673Y-78321700D01*
X148980664Y-78321700D01*
X147184929Y-78321700D01*
X147184923Y-78321701D01*
X147125316Y-78328108D01*
X146990471Y-78378402D01*
X146990464Y-78378406D01*
X146875255Y-78464652D01*
X146875252Y-78464655D01*
X146789006Y-78579864D01*
X146789002Y-78579871D01*
X146738708Y-78714717D01*
X146732301Y-78774316D01*
X146732300Y-78774335D01*
X146732300Y-78947700D01*
X146712615Y-79014739D01*
X146659811Y-79060494D01*
X146608300Y-79071700D01*
X146256857Y-79071700D01*
X146098743Y-79071700D01*
X145946015Y-79112623D01*
X145946014Y-79112623D01*
X145946012Y-79112624D01*
X145946009Y-79112625D01*
X145895896Y-79141559D01*
X145895895Y-79141560D01*
X145852489Y-79166620D01*
X145809085Y-79191679D01*
X145809082Y-79191681D01*
X145697278Y-79303486D01*
X139809265Y-85191498D01*
X139747942Y-85224983D01*
X139735468Y-85227037D01*
X139648550Y-85236830D01*
X139478278Y-85296410D01*
X139325537Y-85392384D01*
X139197984Y-85519937D01*
X139102011Y-85672676D01*
X139042431Y-85842945D01*
X139042430Y-85842950D01*
X139022235Y-86022196D01*
X136701936Y-86022196D01*
X136725816Y-85947494D01*
X136727723Y-85941985D01*
X137020911Y-85155915D01*
X137023099Y-85150453D01*
X137353333Y-84379283D01*
X137355758Y-84373972D01*
X137722340Y-83619332D01*
X137725021Y-83614131D01*
X138127083Y-82877811D01*
X138130003Y-82872753D01*
X138566650Y-82156388D01*
X138569809Y-82151473D01*
X139040046Y-81456699D01*
X139043434Y-81451942D01*
X139546194Y-80780332D01*
X139549797Y-80775750D01*
X140083966Y-80128797D01*
X140087792Y-80124382D01*
X140652123Y-79503598D01*
X140656155Y-79499370D01*
X141249370Y-78906155D01*
X141253598Y-78902123D01*
X141874382Y-78337792D01*
X141878797Y-78333966D01*
X142525750Y-77799797D01*
X142530332Y-77796194D01*
X143201942Y-77293434D01*
X143206699Y-77290046D01*
X143901473Y-76819809D01*
X143906388Y-76816650D01*
X144622753Y-76380003D01*
X144627811Y-76377083D01*
X145364131Y-75975021D01*
X145369332Y-75972340D01*
X146123972Y-75605758D01*
X146129283Y-75603333D01*
X146900470Y-75273091D01*
X146905915Y-75270911D01*
X147691985Y-74977723D01*
X147697494Y-74975816D01*
X148496578Y-74720376D01*
X148502229Y-74718717D01*
X149312573Y-74501587D01*
X149318264Y-74500207D01*
X150138039Y-74321875D01*
X150143752Y-74320774D01*
X150971098Y-74181648D01*
X150976885Y-74180817D01*
X151809890Y-74081219D01*
X151815728Y-74080661D01*
X152652534Y-74020812D01*
X152658354Y-74020534D01*
X153497059Y-74000570D01*
X153502941Y-74000570D01*
X154341643Y-74020534D01*
G37*
%TD.AperFunction*%
%TD*%
%TA.AperFunction,Conductor*%
%TO.N,GND*%
G36*
X159046875Y-79479207D02*
G01*
X159012800Y-79606374D01*
X159012800Y-79738026D01*
X159046875Y-79865193D01*
X159079788Y-79922200D01*
X157405812Y-79922200D01*
X157438725Y-79865193D01*
X157472800Y-79738026D01*
X157472800Y-79606374D01*
X157438725Y-79479207D01*
X157405812Y-79422200D01*
X159079788Y-79422200D01*
X159046875Y-79479207D01*
G37*
%TD.AperFunction*%
%TA.AperFunction,Conductor*%
G36*
X154341643Y-74020534D02*
G01*
X154347467Y-74020812D01*
X155184267Y-74080661D01*
X155190113Y-74081219D01*
X156023108Y-74180816D01*
X156028907Y-74181649D01*
X156856239Y-74320773D01*
X156861968Y-74321877D01*
X157681725Y-74500205D01*
X157687435Y-74501590D01*
X158278246Y-74659896D01*
X158497764Y-74718716D01*
X158503427Y-74720379D01*
X159302492Y-74975812D01*
X159308027Y-74977727D01*
X160094067Y-75270905D01*
X160099543Y-75273098D01*
X160870700Y-75603326D01*
X160876043Y-75605766D01*
X161283608Y-75803749D01*
X161630645Y-75972329D01*
X161635885Y-75975031D01*
X162372170Y-76377073D01*
X162377264Y-76380014D01*
X163093586Y-76816635D01*
X163098551Y-76819826D01*
X163793275Y-77290029D01*
X163798082Y-77293452D01*
X164469637Y-77796172D01*
X164474277Y-77799820D01*
X165121179Y-78333947D01*
X165125638Y-78337811D01*
X165616604Y-78784130D01*
X165746379Y-78902103D01*
X165750650Y-78906176D01*
X166343823Y-79499349D01*
X166347896Y-79503620D01*
X166912187Y-80124360D01*
X166916052Y-80128820D01*
X167396486Y-80710693D01*
X167450179Y-80775722D01*
X167453824Y-80780359D01*
X167651016Y-81043775D01*
X167956547Y-81451917D01*
X167959970Y-81456724D01*
X168430173Y-82151448D01*
X168433364Y-82156413D01*
X168869980Y-82872727D01*
X168872931Y-82877838D01*
X169274965Y-83614108D01*
X169277670Y-83619354D01*
X169644227Y-84373944D01*
X169646678Y-84379312D01*
X169976900Y-85150453D01*
X169979094Y-85155932D01*
X170272264Y-85941951D01*
X170274194Y-85947529D01*
X170529620Y-86746572D01*
X170531283Y-86752235D01*
X170748406Y-87562551D01*
X170749797Y-87568286D01*
X170928115Y-88387998D01*
X170929232Y-88393793D01*
X171068346Y-89221071D01*
X171069186Y-89226913D01*
X171168778Y-90059872D01*
X171169339Y-90065747D01*
X171229185Y-90902496D01*
X171229466Y-90908391D01*
X171249429Y-91747049D01*
X171249429Y-91752951D01*
X171229466Y-92591608D01*
X171229185Y-92597503D01*
X171169339Y-93434252D01*
X171168778Y-93440127D01*
X171069186Y-94273086D01*
X171068346Y-94278928D01*
X170929232Y-95106206D01*
X170928115Y-95112001D01*
X170749797Y-95931713D01*
X170748406Y-95937448D01*
X170531283Y-96747764D01*
X170529620Y-96753427D01*
X170274194Y-97552470D01*
X170272264Y-97558048D01*
X169979094Y-98344067D01*
X169976900Y-98349546D01*
X169646678Y-99120687D01*
X169644227Y-99126055D01*
X169277670Y-99880645D01*
X169274965Y-99885891D01*
X168872931Y-100622161D01*
X168869980Y-100627272D01*
X168433364Y-101343586D01*
X168430173Y-101348551D01*
X167959970Y-102043275D01*
X167956547Y-102048082D01*
X167453827Y-102719637D01*
X167450179Y-102724277D01*
X166916052Y-103371179D01*
X166912187Y-103375639D01*
X166347896Y-103996379D01*
X166343823Y-104000650D01*
X165750650Y-104593823D01*
X165746379Y-104597896D01*
X165125639Y-105162187D01*
X165121179Y-105166052D01*
X164474277Y-105700179D01*
X164469637Y-105703827D01*
X163798082Y-106206547D01*
X163793275Y-106209970D01*
X163098551Y-106680173D01*
X163093586Y-106683364D01*
X162377272Y-107119980D01*
X162372161Y-107122931D01*
X161635891Y-107524965D01*
X161630645Y-107527670D01*
X160876055Y-107894227D01*
X160870687Y-107896678D01*
X160099546Y-108226900D01*
X160094067Y-108229094D01*
X159308048Y-108522264D01*
X159302470Y-108524194D01*
X158503427Y-108779620D01*
X158497764Y-108781283D01*
X157687448Y-108998406D01*
X157681713Y-108999797D01*
X156862001Y-109178115D01*
X156856206Y-109179232D01*
X156028928Y-109318346D01*
X156023086Y-109319186D01*
X155190127Y-109418778D01*
X155184252Y-109419339D01*
X154347503Y-109479185D01*
X154341608Y-109479466D01*
X153502951Y-109499429D01*
X153497049Y-109499429D01*
X152658391Y-109479466D01*
X152652496Y-109479185D01*
X151815747Y-109419339D01*
X151809872Y-109418778D01*
X150976913Y-109319186D01*
X150971071Y-109318346D01*
X150143793Y-109179232D01*
X150137998Y-109178115D01*
X149318286Y-108999797D01*
X149312551Y-108998406D01*
X148502235Y-108781283D01*
X148496572Y-108779620D01*
X147697529Y-108524194D01*
X147691951Y-108522264D01*
X146905932Y-108229094D01*
X146900453Y-108226900D01*
X146129312Y-107896678D01*
X146123944Y-107894227D01*
X145369354Y-107527670D01*
X145364108Y-107524965D01*
X144627838Y-107122931D01*
X144622727Y-107119980D01*
X143906413Y-106683364D01*
X143901448Y-106680173D01*
X143206724Y-106209970D01*
X143201917Y-106206547D01*
X142530362Y-105703827D01*
X142525722Y-105700179D01*
X141878820Y-105166052D01*
X141874360Y-105162187D01*
X141253620Y-104597896D01*
X141249349Y-104593823D01*
X140656176Y-104000650D01*
X140652103Y-103996379D01*
X140478699Y-103805629D01*
X140087811Y-103375638D01*
X140083947Y-103371179D01*
X139946159Y-103204299D01*
X139549813Y-102724269D01*
X139546172Y-102719637D01*
X139405858Y-102532200D01*
X139043448Y-102048077D01*
X139040029Y-102043275D01*
X138951190Y-101912015D01*
X138569822Y-101348545D01*
X138566635Y-101343586D01*
X138545860Y-101309502D01*
X138130014Y-100627264D01*
X138127068Y-100622161D01*
X138124486Y-100617433D01*
X137725031Y-99885885D01*
X137722329Y-99880645D01*
X137547220Y-99520167D01*
X137355766Y-99126043D01*
X137353321Y-99120687D01*
X137281813Y-98953701D01*
X137023098Y-98349543D01*
X137020905Y-98344067D01*
X136991184Y-98264381D01*
X136727727Y-97558027D01*
X136725812Y-97552492D01*
X136499191Y-96843558D01*
X136470379Y-96753427D01*
X136468716Y-96747764D01*
X136365205Y-96361454D01*
X136251590Y-95937435D01*
X136250202Y-95931713D01*
X136071877Y-95111968D01*
X136070773Y-95106239D01*
X135931649Y-94278907D01*
X135930816Y-94273108D01*
X135831219Y-93440113D01*
X135830660Y-93434252D01*
X135770812Y-92597467D01*
X135770534Y-92591643D01*
X135750570Y-91752940D01*
X135750570Y-91747049D01*
X135750681Y-91742384D01*
X135770534Y-90908354D01*
X135770812Y-90902534D01*
X135830661Y-90065728D01*
X135831221Y-90059872D01*
X135837010Y-90011455D01*
X135930817Y-89226885D01*
X135931648Y-89221098D01*
X136070774Y-88393752D01*
X136071875Y-88388039D01*
X136250207Y-87568264D01*
X136251587Y-87562573D01*
X136468717Y-86752229D01*
X136470379Y-86746572D01*
X136470920Y-86744880D01*
X136701936Y-86022196D01*
X139022235Y-86022196D01*
X139022235Y-86022203D01*
X139042430Y-86201449D01*
X139042431Y-86201454D01*
X139102011Y-86371723D01*
X139197984Y-86524462D01*
X139197985Y-86524463D01*
X139243041Y-86569520D01*
X139276525Y-86630843D01*
X139271540Y-86700535D01*
X139243041Y-86744880D01*
X139197984Y-86789937D01*
X139102011Y-86942676D01*
X139042431Y-87112945D01*
X139042430Y-87112950D01*
X139022235Y-87292196D01*
X139022235Y-87292203D01*
X139042430Y-87471449D01*
X139042431Y-87471454D01*
X139102011Y-87641723D01*
X139197984Y-87794462D01*
X139197985Y-87794463D01*
X139243041Y-87839520D01*
X139276525Y-87900843D01*
X139271540Y-87970535D01*
X139243041Y-88014880D01*
X139197984Y-88059937D01*
X139102011Y-88212676D01*
X139042431Y-88382945D01*
X139042430Y-88382950D01*
X139022235Y-88562196D01*
X139022235Y-88562203D01*
X139042430Y-88741449D01*
X139042431Y-88741454D01*
X139102011Y-88911723D01*
X139197984Y-89064462D01*
X139197985Y-89064463D01*
X139243041Y-89109520D01*
X139276525Y-89170843D01*
X139271540Y-89240535D01*
X139243041Y-89284880D01*
X139197984Y-89329937D01*
X139102011Y-89482676D01*
X139042431Y-89652945D01*
X139042430Y-89652950D01*
X139022235Y-89832196D01*
X139022235Y-89832203D01*
X139042430Y-90011449D01*
X139042431Y-90011454D01*
X139102011Y-90181723D01*
X139197984Y-90334462D01*
X139197985Y-90334463D01*
X139243041Y-90379520D01*
X139276525Y-90440843D01*
X139271540Y-90510535D01*
X139243041Y-90554880D01*
X139197984Y-90599937D01*
X139102011Y-90752676D01*
X139042431Y-90922945D01*
X139042430Y-90922950D01*
X139022235Y-91102196D01*
X139022235Y-91102203D01*
X139042430Y-91281449D01*
X139042431Y-91281454D01*
X139102011Y-91451723D01*
X139197984Y-91604462D01*
X139197985Y-91604463D01*
X139243041Y-91649520D01*
X139276525Y-91710843D01*
X139271540Y-91780535D01*
X139243041Y-91824880D01*
X139197984Y-91869937D01*
X139102011Y-92022676D01*
X139042431Y-92192945D01*
X139042430Y-92192950D01*
X139022235Y-92372196D01*
X139022235Y-92372203D01*
X139042430Y-92551449D01*
X139042431Y-92551454D01*
X139102011Y-92721723D01*
X139197984Y-92874462D01*
X139197985Y-92874463D01*
X139243041Y-92919520D01*
X139276525Y-92980843D01*
X139271540Y-93050535D01*
X139243041Y-93094880D01*
X139197984Y-93139937D01*
X139102011Y-93292676D01*
X139042431Y-93462945D01*
X139042430Y-93462950D01*
X139022235Y-93642196D01*
X139022235Y-93642203D01*
X139042430Y-93821449D01*
X139042431Y-93821454D01*
X139102011Y-93991723D01*
X139197984Y-94144462D01*
X139197985Y-94144463D01*
X139243041Y-94189520D01*
X139276525Y-94250843D01*
X139271540Y-94320535D01*
X139243041Y-94364880D01*
X139197984Y-94409937D01*
X139102011Y-94562676D01*
X139042431Y-94732945D01*
X139042430Y-94732950D01*
X139022235Y-94912196D01*
X139022235Y-94912203D01*
X139042430Y-95091449D01*
X139042431Y-95091454D01*
X139102011Y-95261723D01*
X139197984Y-95414462D01*
X139197985Y-95414463D01*
X139243041Y-95459520D01*
X139276525Y-95520843D01*
X139271540Y-95590535D01*
X139243041Y-95634880D01*
X139197984Y-95679937D01*
X139102011Y-95832676D01*
X139042431Y-96002945D01*
X139042430Y-96002950D01*
X139022235Y-96182196D01*
X139022235Y-96182203D01*
X139042430Y-96361449D01*
X139042431Y-96361454D01*
X139102011Y-96531723D01*
X139197984Y-96684462D01*
X139197985Y-96684463D01*
X139243041Y-96729520D01*
X139276525Y-96790843D01*
X139271540Y-96860535D01*
X139243041Y-96904880D01*
X139197984Y-96949937D01*
X139102011Y-97102676D01*
X139042431Y-97272945D01*
X139042430Y-97272950D01*
X139022235Y-97452196D01*
X139022235Y-97452203D01*
X139042430Y-97631449D01*
X139042431Y-97631454D01*
X139102011Y-97801723D01*
X139173731Y-97915864D01*
X139197984Y-97954462D01*
X139325538Y-98082016D01*
X139478278Y-98177989D01*
X139648545Y-98237568D01*
X139735469Y-98247361D01*
X139799880Y-98274426D01*
X139809265Y-98282900D01*
X144422939Y-102896574D01*
X144422949Y-102896585D01*
X144427279Y-102900915D01*
X144427280Y-102900916D01*
X144539084Y-103012720D01*
X144608360Y-103052716D01*
X144676015Y-103091777D01*
X144828743Y-103132701D01*
X144828746Y-103132701D01*
X144994453Y-103132701D01*
X144994469Y-103132700D01*
X146793709Y-103132700D01*
X146860748Y-103152385D01*
X146906092Y-103204297D01*
X146908765Y-103210030D01*
X147044305Y-103403601D01*
X147211399Y-103570695D01*
X147308184Y-103638465D01*
X147404965Y-103706232D01*
X147404967Y-103706233D01*
X147404970Y-103706235D01*
X147619137Y-103806103D01*
X147847392Y-103867263D01*
X148035718Y-103883739D01*
X148082799Y-103887859D01*
X148082800Y-103887859D01*
X148082801Y-103887859D01*
X148122034Y-103884426D01*
X148318208Y-103867263D01*
X148546463Y-103806103D01*
X148760630Y-103706235D01*
X148954201Y-103570695D01*
X149121295Y-103403601D01*
X149251530Y-103217605D01*
X149306107Y-103173981D01*
X149375605Y-103166787D01*
X149437960Y-103198310D01*
X149454679Y-103217605D01*
X149584690Y-103403278D01*
X149751717Y-103570305D01*
X149945221Y-103705800D01*
X150159307Y-103805629D01*
X150159316Y-103805633D01*
X150372800Y-103862834D01*
X150372800Y-102965212D01*
X150429807Y-102998125D01*
X150556974Y-103032200D01*
X150688626Y-103032200D01*
X150815793Y-102998125D01*
X150872800Y-102965212D01*
X150872800Y-103862833D01*
X151086283Y-103805633D01*
X151086292Y-103805629D01*
X151300378Y-103705800D01*
X151493882Y-103570305D01*
X151660905Y-103403282D01*
X151796400Y-103209778D01*
X151896229Y-102995692D01*
X151896232Y-102995686D01*
X151953436Y-102782200D01*
X151055812Y-102782200D01*
X151088725Y-102725193D01*
X151122800Y-102598026D01*
X151122800Y-102466374D01*
X151088725Y-102339207D01*
X151055812Y-102282200D01*
X151953436Y-102282200D01*
X151953435Y-102282199D01*
X151896232Y-102068713D01*
X151896229Y-102068707D01*
X151796400Y-101854622D01*
X151796399Y-101854620D01*
X151660913Y-101661126D01*
X151660908Y-101661120D01*
X151493878Y-101494090D01*
X151308205Y-101364079D01*
X151264580Y-101309502D01*
X151257388Y-101240004D01*
X151288910Y-101177649D01*
X151308206Y-101160930D01*
X151308642Y-101160625D01*
X151494201Y-101030695D01*
X151661295Y-100863601D01*
X151796835Y-100670030D01*
X151896703Y-100455863D01*
X151957863Y-100227608D01*
X151978459Y-99992200D01*
X151957863Y-99756792D01*
X151896703Y-99528537D01*
X151796835Y-99314371D01*
X151796834Y-99314369D01*
X151661294Y-99120797D01*
X151494202Y-98953706D01*
X151494196Y-98953701D01*
X151308642Y-98823775D01*
X151265017Y-98769198D01*
X151257823Y-98699700D01*
X151289346Y-98637345D01*
X151308642Y-98620625D01*
X151330826Y-98605091D01*
X151494201Y-98490695D01*
X151661295Y-98323601D01*
X151796835Y-98130030D01*
X151896703Y-97915863D01*
X151957863Y-97687608D01*
X151978459Y-97452200D01*
X151957863Y-97216792D01*
X151896703Y-96988537D01*
X151796835Y-96774371D01*
X151796834Y-96774369D01*
X151661294Y-96580797D01*
X151494202Y-96413706D01*
X151494196Y-96413701D01*
X151308642Y-96283775D01*
X151265017Y-96229198D01*
X151257823Y-96159700D01*
X151289346Y-96097345D01*
X151308642Y-96080625D01*
X151419580Y-96002945D01*
X151494201Y-95950695D01*
X151661295Y-95783601D01*
X151796835Y-95590030D01*
X151896703Y-95375863D01*
X151957863Y-95147608D01*
X151978459Y-94912200D01*
X151957863Y-94676792D01*
X151896703Y-94448537D01*
X151796835Y-94234371D01*
X151796834Y-94234369D01*
X151661294Y-94040797D01*
X151494202Y-93873706D01*
X151494196Y-93873701D01*
X151308642Y-93743775D01*
X151265017Y-93689198D01*
X151257823Y-93619700D01*
X151289346Y-93557345D01*
X151308642Y-93540625D01*
X151419583Y-93462943D01*
X151494201Y-93410695D01*
X151661295Y-93243601D01*
X151796835Y-93050030D01*
X151896703Y-92835863D01*
X151957863Y-92607608D01*
X151978459Y-92372200D01*
X151957863Y-92136792D01*
X151896703Y-91908537D01*
X151796835Y-91694371D01*
X151796834Y-91694369D01*
X151661294Y-91500797D01*
X151494202Y-91333706D01*
X151494196Y-91333701D01*
X151308642Y-91203775D01*
X151265017Y-91149198D01*
X151257823Y-91079700D01*
X151289346Y-91017345D01*
X151308642Y-91000625D01*
X151419580Y-90922945D01*
X151494201Y-90870695D01*
X151661295Y-90703601D01*
X151796835Y-90510030D01*
X151896703Y-90295863D01*
X151957863Y-90067608D01*
X151978459Y-89832200D01*
X151957863Y-89596792D01*
X151896703Y-89368537D01*
X151796835Y-89154371D01*
X151796482Y-89153866D01*
X151661294Y-88960797D01*
X151494202Y-88793706D01*
X151494196Y-88793701D01*
X151308642Y-88663775D01*
X151265017Y-88609198D01*
X151257823Y-88539700D01*
X151289346Y-88477345D01*
X151308642Y-88460625D01*
X151330826Y-88445091D01*
X151494201Y-88330695D01*
X151661295Y-88163601D01*
X151796835Y-87970030D01*
X151896703Y-87755863D01*
X151957863Y-87527608D01*
X151978459Y-87292200D01*
X151957863Y-87056792D01*
X151896703Y-86828537D01*
X151796835Y-86614371D01*
X151791225Y-86606358D01*
X151661294Y-86420797D01*
X151494202Y-86253706D01*
X151494196Y-86253701D01*
X151308642Y-86123775D01*
X151265017Y-86069198D01*
X151257823Y-85999700D01*
X151289346Y-85937345D01*
X151308642Y-85920625D01*
X151419580Y-85842945D01*
X151494201Y-85790695D01*
X151661295Y-85623601D01*
X151796835Y-85430030D01*
X151896703Y-85215863D01*
X151957863Y-84987608D01*
X151978459Y-84752200D01*
X151957863Y-84516792D01*
X151896703Y-84288537D01*
X151796835Y-84074371D01*
X151791225Y-84066358D01*
X151661294Y-83880797D01*
X151494202Y-83713706D01*
X151494196Y-83713701D01*
X151308642Y-83583775D01*
X151265017Y-83529198D01*
X151257823Y-83459700D01*
X151289346Y-83397345D01*
X151308642Y-83380625D01*
X151330826Y-83365091D01*
X151494201Y-83250695D01*
X151661295Y-83083601D01*
X151796835Y-82890030D01*
X151896703Y-82675863D01*
X151957863Y-82447608D01*
X151978459Y-82212200D01*
X151978459Y-82212199D01*
X155617141Y-82212199D01*
X155617141Y-82212200D01*
X155637736Y-82447603D01*
X155637738Y-82447613D01*
X155698894Y-82675855D01*
X155698896Y-82675859D01*
X155698897Y-82675863D01*
X155708162Y-82695731D01*
X155798765Y-82890030D01*
X155798767Y-82890034D01*
X155907081Y-83044721D01*
X155934301Y-83083596D01*
X155934306Y-83083602D01*
X156101397Y-83250693D01*
X156101403Y-83250698D01*
X156286958Y-83380625D01*
X156330583Y-83435202D01*
X156337777Y-83504700D01*
X156306254Y-83567055D01*
X156286958Y-83583775D01*
X156101397Y-83713705D01*
X155934305Y-83880797D01*
X155798765Y-84074369D01*
X155798764Y-84074371D01*
X155698898Y-84288535D01*
X155698894Y-84288544D01*
X155637738Y-84516786D01*
X155637736Y-84516796D01*
X155617141Y-84752199D01*
X155617141Y-84752200D01*
X155637736Y-84987603D01*
X155637738Y-84987613D01*
X155698894Y-85215855D01*
X155698896Y-85215859D01*
X155698897Y-85215863D01*
X155778804Y-85387223D01*
X155798765Y-85430030D01*
X155798767Y-85430034D01*
X155861719Y-85519938D01*
X155934301Y-85623596D01*
X155934306Y-85623602D01*
X156101397Y-85790693D01*
X156101403Y-85790698D01*
X156286958Y-85920625D01*
X156330583Y-85975202D01*
X156337777Y-86044700D01*
X156306254Y-86107055D01*
X156286958Y-86123775D01*
X156101397Y-86253705D01*
X155934305Y-86420797D01*
X155798765Y-86614369D01*
X155798764Y-86614371D01*
X155698898Y-86828535D01*
X155698894Y-86828544D01*
X155637738Y-87056786D01*
X155637736Y-87056796D01*
X155617141Y-87292199D01*
X155617141Y-87292200D01*
X155637736Y-87527603D01*
X155637738Y-87527613D01*
X155698894Y-87755855D01*
X155698896Y-87755859D01*
X155698897Y-87755863D01*
X155785701Y-87942015D01*
X155798765Y-87970030D01*
X155798767Y-87970034D01*
X155861719Y-88059938D01*
X155934301Y-88163596D01*
X155934306Y-88163602D01*
X156101397Y-88330693D01*
X156101403Y-88330698D01*
X156286958Y-88460625D01*
X156330583Y-88515202D01*
X156337777Y-88584700D01*
X156306254Y-88647055D01*
X156286958Y-88663775D01*
X156101397Y-88793705D01*
X155934305Y-88960797D01*
X155798765Y-89154369D01*
X155798764Y-89154371D01*
X155698898Y-89368535D01*
X155698894Y-89368544D01*
X155637738Y-89596786D01*
X155637736Y-89596796D01*
X155617141Y-89832199D01*
X155617141Y-89832200D01*
X155637736Y-90067603D01*
X155637738Y-90067613D01*
X155698894Y-90295855D01*
X155698896Y-90295859D01*
X155698897Y-90295863D01*
X155785701Y-90482015D01*
X155798765Y-90510030D01*
X155798767Y-90510034D01*
X155861719Y-90599938D01*
X155934301Y-90703596D01*
X155934306Y-90703602D01*
X156101397Y-90870693D01*
X156101403Y-90870698D01*
X156286958Y-91000625D01*
X156330583Y-91055202D01*
X156337777Y-91124700D01*
X156306254Y-91187055D01*
X156286958Y-91203775D01*
X156101397Y-91333705D01*
X155934305Y-91500797D01*
X155798765Y-91694369D01*
X155798764Y-91694371D01*
X155698898Y-91908535D01*
X155698894Y-91908544D01*
X155637738Y-92136786D01*
X155637736Y-92136796D01*
X155617141Y-92372199D01*
X155617141Y-92372200D01*
X155637736Y-92607603D01*
X155637738Y-92607613D01*
X155698894Y-92835855D01*
X155698896Y-92835859D01*
X155698897Y-92835863D01*
X155767688Y-92983386D01*
X155798765Y-93050030D01*
X155798767Y-93050034D01*
X155861719Y-93139938D01*
X155934301Y-93243596D01*
X155934306Y-93243602D01*
X156101397Y-93410693D01*
X156101403Y-93410698D01*
X156286958Y-93540625D01*
X156330583Y-93595202D01*
X156337777Y-93664700D01*
X156306254Y-93727055D01*
X156286958Y-93743775D01*
X156101397Y-93873705D01*
X155934305Y-94040797D01*
X155798765Y-94234369D01*
X155798764Y-94234371D01*
X155698898Y-94448535D01*
X155698894Y-94448544D01*
X155637738Y-94676786D01*
X155637736Y-94676796D01*
X155617141Y-94912199D01*
X155617141Y-94912200D01*
X155637736Y-95147603D01*
X155637738Y-95147613D01*
X155698894Y-95375855D01*
X155698896Y-95375859D01*
X155698897Y-95375863D01*
X155771639Y-95531858D01*
X155798765Y-95590030D01*
X155798767Y-95590034D01*
X155861719Y-95679938D01*
X155934301Y-95783596D01*
X155934306Y-95783602D01*
X156101397Y-95950693D01*
X156101403Y-95950698D01*
X156286958Y-96080625D01*
X156330583Y-96135202D01*
X156337777Y-96204700D01*
X156306254Y-96267055D01*
X156286958Y-96283775D01*
X156101397Y-96413705D01*
X155934305Y-96580797D01*
X155798765Y-96774369D01*
X155798764Y-96774371D01*
X155698898Y-96988535D01*
X155698894Y-96988544D01*
X155637738Y-97216786D01*
X155637736Y-97216796D01*
X155617141Y-97452199D01*
X155617141Y-97452200D01*
X155637736Y-97687603D01*
X155637738Y-97687613D01*
X155698894Y-97915855D01*
X155698896Y-97915859D01*
X155698897Y-97915863D01*
X155762853Y-98053016D01*
X155798765Y-98130030D01*
X155798767Y-98130034D01*
X155874063Y-98237567D01*
X155934301Y-98323596D01*
X155934306Y-98323602D01*
X156101397Y-98490693D01*
X156101403Y-98490698D01*
X156286958Y-98620625D01*
X156330583Y-98675202D01*
X156337777Y-98744700D01*
X156306254Y-98807055D01*
X156286958Y-98823775D01*
X156101397Y-98953705D01*
X155934305Y-99120797D01*
X155798765Y-99314369D01*
X155798764Y-99314371D01*
X155698898Y-99528535D01*
X155698894Y-99528544D01*
X155637738Y-99756786D01*
X155637736Y-99756796D01*
X155617141Y-99992199D01*
X155617141Y-99992200D01*
X155637736Y-100227603D01*
X155637738Y-100227613D01*
X155698894Y-100455855D01*
X155698896Y-100455859D01*
X155698897Y-100455863D01*
X155762853Y-100593016D01*
X155798765Y-100670030D01*
X155798767Y-100670034D01*
X155888303Y-100797903D01*
X155934301Y-100863596D01*
X155934306Y-100863602D01*
X156101397Y-101030693D01*
X156101403Y-101030698D01*
X156286958Y-101160625D01*
X156330583Y-101215202D01*
X156337777Y-101284700D01*
X156306254Y-101347055D01*
X156286958Y-101363775D01*
X156101397Y-101493705D01*
X155934305Y-101660797D01*
X155798765Y-101854369D01*
X155798764Y-101854371D01*
X155698898Y-102068535D01*
X155698894Y-102068544D01*
X155637738Y-102296786D01*
X155637736Y-102296796D01*
X155617141Y-102532199D01*
X155617141Y-102532200D01*
X155637736Y-102767603D01*
X155637738Y-102767613D01*
X155698894Y-102995855D01*
X155698896Y-102995859D01*
X155698897Y-102995863D01*
X155778804Y-103167223D01*
X155798765Y-103210030D01*
X155798767Y-103210034D01*
X155907081Y-103364721D01*
X155934305Y-103403601D01*
X156101399Y-103570695D01*
X156198184Y-103638465D01*
X156294965Y-103706232D01*
X156294967Y-103706233D01*
X156294970Y-103706235D01*
X156509137Y-103806103D01*
X156737392Y-103867263D01*
X156925718Y-103883739D01*
X156972799Y-103887859D01*
X156972800Y-103887859D01*
X156972801Y-103887859D01*
X157012034Y-103884426D01*
X157208208Y-103867263D01*
X157436463Y-103806103D01*
X157650630Y-103706235D01*
X157844201Y-103570695D01*
X158011295Y-103403601D01*
X158141225Y-103218042D01*
X158195802Y-103174417D01*
X158265300Y-103167223D01*
X158327655Y-103198746D01*
X158344375Y-103218042D01*
X158474300Y-103403595D01*
X158474305Y-103403601D01*
X158641399Y-103570695D01*
X158738184Y-103638465D01*
X158834965Y-103706232D01*
X158834967Y-103706233D01*
X158834970Y-103706235D01*
X159049137Y-103806103D01*
X159277392Y-103867263D01*
X159465718Y-103883739D01*
X159512799Y-103887859D01*
X159512800Y-103887859D01*
X159512801Y-103887859D01*
X159552034Y-103884426D01*
X159748208Y-103867263D01*
X159976463Y-103806103D01*
X160190630Y-103706235D01*
X160384201Y-103570695D01*
X160551295Y-103403601D01*
X160686835Y-103210030D01*
X160689507Y-103204297D01*
X160735678Y-103151858D01*
X160801891Y-103132700D01*
X161966131Y-103132700D01*
X161966147Y-103132701D01*
X161973743Y-103132701D01*
X162131854Y-103132701D01*
X162131857Y-103132701D01*
X162284585Y-103091777D01*
X162352240Y-103052716D01*
X162421516Y-103012720D01*
X162533320Y-102900916D01*
X162533320Y-102900914D01*
X162543524Y-102890711D01*
X162543528Y-102890706D01*
X167151335Y-98282898D01*
X167212656Y-98249415D01*
X167225111Y-98247363D01*
X167312055Y-98237568D01*
X167482322Y-98177989D01*
X167635062Y-98082016D01*
X167762616Y-97954462D01*
X167858589Y-97801722D01*
X167918168Y-97631455D01*
X167926439Y-97558048D01*
X167938365Y-97452203D01*
X167938365Y-97452196D01*
X167918169Y-97272950D01*
X167918168Y-97272945D01*
X167858588Y-97102676D01*
X167762615Y-96949937D01*
X167717559Y-96904881D01*
X167684074Y-96843558D01*
X167689058Y-96773866D01*
X167717559Y-96729519D01*
X167762616Y-96684462D01*
X167858589Y-96531722D01*
X167918168Y-96361455D01*
X167918169Y-96361449D01*
X167938365Y-96182203D01*
X167938365Y-96182196D01*
X167918169Y-96002950D01*
X167918168Y-96002945D01*
X167899884Y-95950693D01*
X167858589Y-95832678D01*
X167827752Y-95783602D01*
X167762615Y-95679937D01*
X167717559Y-95634881D01*
X167684074Y-95573558D01*
X167689058Y-95503866D01*
X167717559Y-95459519D01*
X167762616Y-95414462D01*
X167858589Y-95261722D01*
X167918168Y-95091455D01*
X167938365Y-94912200D01*
X167918168Y-94732945D01*
X167858589Y-94562678D01*
X167762616Y-94409938D01*
X167717558Y-94364880D01*
X167684074Y-94303558D01*
X167689058Y-94233866D01*
X167717559Y-94189519D01*
X167762616Y-94144462D01*
X167858589Y-93991722D01*
X167918168Y-93821455D01*
X167918169Y-93821449D01*
X167938365Y-93642203D01*
X167938365Y-93642196D01*
X167918169Y-93462950D01*
X167918168Y-93462945D01*
X167858588Y-93292676D01*
X167819382Y-93230280D01*
X167762616Y-93139938D01*
X167717558Y-93094880D01*
X167684074Y-93033558D01*
X167689058Y-92963866D01*
X167717559Y-92919519D01*
X167762616Y-92874462D01*
X167858589Y-92721722D01*
X167918168Y-92551455D01*
X167938365Y-92372200D01*
X167918168Y-92192945D01*
X167858589Y-92022678D01*
X167762616Y-91869938D01*
X167717558Y-91824880D01*
X167684074Y-91763558D01*
X167689058Y-91693866D01*
X167717559Y-91649519D01*
X167737025Y-91630053D01*
X167762616Y-91604462D01*
X167858589Y-91451722D01*
X167918168Y-91281455D01*
X167926293Y-91209347D01*
X167938365Y-91102203D01*
X167938365Y-91102196D01*
X167918169Y-90922950D01*
X167918168Y-90922945D01*
X167858588Y-90752676D01*
X167762615Y-90599937D01*
X167717559Y-90554881D01*
X167684074Y-90493558D01*
X167689058Y-90423866D01*
X167717559Y-90379519D01*
X167762616Y-90334462D01*
X167858589Y-90181722D01*
X167918168Y-90011455D01*
X167938365Y-89832200D01*
X167920060Y-89669738D01*
X167918169Y-89652950D01*
X167918168Y-89652945D01*
X167858588Y-89482676D01*
X167762615Y-89329937D01*
X167717559Y-89284881D01*
X167684074Y-89223558D01*
X167689058Y-89153866D01*
X167717559Y-89109519D01*
X167737025Y-89090053D01*
X167762616Y-89064462D01*
X167858589Y-88911722D01*
X167918168Y-88741455D01*
X167918169Y-88741449D01*
X167938365Y-88562203D01*
X167938365Y-88562196D01*
X167918169Y-88382950D01*
X167918168Y-88382945D01*
X167858588Y-88212676D01*
X167762615Y-88059937D01*
X167717559Y-88014881D01*
X167684074Y-87953558D01*
X167689058Y-87883866D01*
X167717559Y-87839519D01*
X167737025Y-87820053D01*
X167762616Y-87794462D01*
X167858589Y-87641722D01*
X167918168Y-87471455D01*
X167938365Y-87292200D01*
X167935228Y-87264359D01*
X167918169Y-87112950D01*
X167918168Y-87112945D01*
X167858588Y-86942676D01*
X167762615Y-86789937D01*
X167635062Y-86662384D01*
X167482323Y-86566411D01*
X167312054Y-86506831D01*
X167312049Y-86506830D01*
X167132804Y-86486635D01*
X167132796Y-86486635D01*
X166953550Y-86506830D01*
X166953545Y-86506831D01*
X166783276Y-86566411D01*
X166630536Y-86662385D01*
X166627703Y-86664645D01*
X166625524Y-86665534D01*
X166624642Y-86666089D01*
X166624544Y-86665934D01*
X166563017Y-86691055D01*
X166550388Y-86691700D01*
X164892897Y-86691700D01*
X164825858Y-86672015D01*
X164805216Y-86655381D01*
X160845566Y-82695731D01*
X160812081Y-82634408D01*
X160813472Y-82575957D01*
X160814663Y-82571509D01*
X160847863Y-82447608D01*
X160868459Y-82212200D01*
X160847863Y-81976792D01*
X160786703Y-81748537D01*
X160686835Y-81534371D01*
X160681225Y-81526358D01*
X160551294Y-81340797D01*
X160384202Y-81173706D01*
X160384201Y-81173705D01*
X160198205Y-81043469D01*
X160154581Y-80988892D01*
X160147388Y-80919393D01*
X160178910Y-80857039D01*
X160198205Y-80840319D01*
X160383882Y-80710305D01*
X160550905Y-80543282D01*
X160686400Y-80349778D01*
X160786229Y-80135692D01*
X160786232Y-80135686D01*
X160843436Y-79922200D01*
X159945812Y-79922200D01*
X159978725Y-79865193D01*
X160012800Y-79738026D01*
X160012800Y-79606374D01*
X159978725Y-79479207D01*
X159945812Y-79422200D01*
X160843436Y-79422200D01*
X160843435Y-79422199D01*
X160786232Y-79208713D01*
X160786229Y-79208707D01*
X160686400Y-78994622D01*
X160686399Y-78994620D01*
X160550913Y-78801126D01*
X160550908Y-78801120D01*
X160383882Y-78634094D01*
X160190378Y-78498599D01*
X159976292Y-78398770D01*
X159976286Y-78398767D01*
X159762800Y-78341564D01*
X159762800Y-79239188D01*
X159705793Y-79206275D01*
X159578626Y-79172200D01*
X159446974Y-79172200D01*
X159319807Y-79206275D01*
X159262800Y-79239188D01*
X159262800Y-78341564D01*
X159262799Y-78341564D01*
X159049313Y-78398767D01*
X159049307Y-78398770D01*
X158835222Y-78498599D01*
X158835220Y-78498600D01*
X158641726Y-78634086D01*
X158519277Y-78756535D01*
X158457954Y-78790019D01*
X158388262Y-78785035D01*
X158332329Y-78743163D01*
X158315414Y-78712186D01*
X158266154Y-78580113D01*
X158266150Y-78580106D01*
X158179990Y-78465012D01*
X158179987Y-78465009D01*
X158064893Y-78378849D01*
X158064886Y-78378845D01*
X157930179Y-78328603D01*
X157930172Y-78328601D01*
X157870644Y-78322200D01*
X157222800Y-78322200D01*
X157222800Y-79239188D01*
X157165793Y-79206275D01*
X157038626Y-79172200D01*
X156906974Y-79172200D01*
X156779807Y-79206275D01*
X156722800Y-79239188D01*
X156722800Y-78322200D01*
X156074955Y-78322200D01*
X156015427Y-78328601D01*
X156015420Y-78328603D01*
X155880713Y-78378845D01*
X155880706Y-78378849D01*
X155765612Y-78465009D01*
X155765609Y-78465012D01*
X155679449Y-78580106D01*
X155679445Y-78580113D01*
X155629203Y-78714820D01*
X155629201Y-78714827D01*
X155622800Y-78774355D01*
X155622800Y-79422200D01*
X156539788Y-79422200D01*
X156506875Y-79479207D01*
X156472800Y-79606374D01*
X156472800Y-79738026D01*
X156506875Y-79865193D01*
X156539788Y-79922200D01*
X155622800Y-79922200D01*
X155622800Y-80570044D01*
X155629201Y-80629572D01*
X155629203Y-80629579D01*
X155679445Y-80764286D01*
X155679449Y-80764293D01*
X155765609Y-80879387D01*
X155765612Y-80879390D01*
X155880706Y-80965550D01*
X155880713Y-80965554D01*
X156012270Y-81014621D01*
X156068203Y-81056492D01*
X156092621Y-81121956D01*
X156077770Y-81190229D01*
X156056619Y-81218484D01*
X155934303Y-81340800D01*
X155798765Y-81534369D01*
X155798764Y-81534371D01*
X155698898Y-81748535D01*
X155698894Y-81748544D01*
X155637738Y-81976786D01*
X155637736Y-81976796D01*
X155617141Y-82212199D01*
X151978459Y-82212199D01*
X151957863Y-81976792D01*
X151896703Y-81748537D01*
X151796835Y-81534371D01*
X151791225Y-81526358D01*
X151661294Y-81340797D01*
X151494202Y-81173706D01*
X151494196Y-81173701D01*
X151308642Y-81043775D01*
X151265017Y-80989198D01*
X151257823Y-80919700D01*
X151289346Y-80857345D01*
X151308642Y-80840625D01*
X151401333Y-80775722D01*
X151494201Y-80710695D01*
X151661295Y-80543601D01*
X151796835Y-80350030D01*
X151896703Y-80135863D01*
X151957863Y-79907608D01*
X151978459Y-79672200D01*
X151957863Y-79436792D01*
X151896703Y-79208537D01*
X151796835Y-78994371D01*
X151735081Y-78906176D01*
X151661294Y-78800797D01*
X151494202Y-78633706D01*
X151494195Y-78633701D01*
X151300634Y-78498167D01*
X151300630Y-78498165D01*
X151229527Y-78465009D01*
X151086463Y-78398297D01*
X151086459Y-78398296D01*
X151086455Y-78398294D01*
X150858213Y-78337138D01*
X150858203Y-78337136D01*
X150622801Y-78316541D01*
X150622799Y-78316541D01*
X150387396Y-78337136D01*
X150387386Y-78337138D01*
X150159144Y-78398294D01*
X150159135Y-78398298D01*
X149944971Y-78498164D01*
X149944969Y-78498165D01*
X149751400Y-78633703D01*
X149629473Y-78755630D01*
X149568150Y-78789114D01*
X149498458Y-78784130D01*
X149442525Y-78742258D01*
X149425610Y-78711281D01*
X149376597Y-78579871D01*
X149376593Y-78579864D01*
X149290347Y-78464655D01*
X149290344Y-78464652D01*
X149175135Y-78378406D01*
X149175128Y-78378402D01*
X149040282Y-78328108D01*
X149040283Y-78328108D01*
X148980683Y-78321701D01*
X148980681Y-78321700D01*
X148980673Y-78321700D01*
X148980664Y-78321700D01*
X147184929Y-78321700D01*
X147184923Y-78321701D01*
X147125316Y-78328108D01*
X146990471Y-78378402D01*
X146990464Y-78378406D01*
X146875255Y-78464652D01*
X146875252Y-78464655D01*
X146789006Y-78579864D01*
X146789002Y-78579871D01*
X146738708Y-78714717D01*
X146732301Y-78774316D01*
X146732300Y-78774335D01*
X146732300Y-78947700D01*
X146712615Y-79014739D01*
X146659811Y-79060494D01*
X146608300Y-79071700D01*
X146256857Y-79071700D01*
X146098743Y-79071700D01*
X145946015Y-79112623D01*
X145946014Y-79112623D01*
X145946012Y-79112624D01*
X145946009Y-79112625D01*
X145895896Y-79141559D01*
X145895895Y-79141560D01*
X145852489Y-79166620D01*
X145809085Y-79191679D01*
X145809082Y-79191681D01*
X145697278Y-79303486D01*
X139809265Y-85191498D01*
X139747942Y-85224983D01*
X139735468Y-85227037D01*
X139648550Y-85236830D01*
X139478278Y-85296410D01*
X139325537Y-85392384D01*
X139197984Y-85519937D01*
X139102011Y-85672676D01*
X139042431Y-85842945D01*
X139042430Y-85842950D01*
X139022235Y-86022196D01*
X136701936Y-86022196D01*
X136725816Y-85947494D01*
X136727723Y-85941985D01*
X137020911Y-85155915D01*
X137023099Y-85150453D01*
X137353333Y-84379283D01*
X137355758Y-84373972D01*
X137722340Y-83619332D01*
X137725021Y-83614131D01*
X138127083Y-82877811D01*
X138130003Y-82872753D01*
X138566650Y-82156388D01*
X138569809Y-82151473D01*
X139040046Y-81456699D01*
X139043434Y-81451942D01*
X139546194Y-80780332D01*
X139549797Y-80775750D01*
X140083966Y-80128797D01*
X140087792Y-80124382D01*
X140652123Y-79503598D01*
X140656155Y-79499370D01*
X141249370Y-78906155D01*
X141253598Y-78902123D01*
X141874382Y-78337792D01*
X141878797Y-78333966D01*
X142525750Y-77799797D01*
X142530332Y-77796194D01*
X143201942Y-77293434D01*
X143206699Y-77290046D01*
X143901473Y-76819809D01*
X143906388Y-76816650D01*
X144622753Y-76380003D01*
X144627811Y-76377083D01*
X145364131Y-75975021D01*
X145369332Y-75972340D01*
X146123972Y-75605758D01*
X146129283Y-75603333D01*
X146900470Y-75273091D01*
X146905915Y-75270911D01*
X147691985Y-74977723D01*
X147697494Y-74975816D01*
X148496578Y-74720376D01*
X148502229Y-74718717D01*
X149312573Y-74501587D01*
X149318264Y-74500207D01*
X150138039Y-74321875D01*
X150143752Y-74320774D01*
X150971098Y-74181648D01*
X150976885Y-74180817D01*
X151809890Y-74081219D01*
X151815728Y-74080661D01*
X152652534Y-74020812D01*
X152658354Y-74020534D01*
X153497059Y-74000570D01*
X153502941Y-74000570D01*
X154341643Y-74020534D01*
G37*
%TD.AperFunction*%
%TD*%
M02*
